<svg width="65" height="25" viewBox="0 0 65 25" fill="none" xmlns="http://www.w3.org/2000/svg">
<g clip-path="url(#clip0_527_12833)">
<path d="M16.9131 4.94629H19.8724V22.0301H16.9131V4.94629ZM30.2301 16.5803C30.2301 19.1948 27.85 19.4032 27.142 19.4032C25.373 19.4032 25.0513 17.8739 25.0513 16.9514V10.4131H22.0919V16.9377C22.0919 18.5573 22.6424 19.8939 23.6071 20.785C24.4594 21.5729 25.7363 22.0034 27.1198 22.0034C28.1008 22.0034 29.4902 21.7212 30.2301 21.0973V22.0301H33.1894V10.4131H30.2301V16.5803ZM39.108 6.31302H36.1487V10.4131H33.9292V13.1465H36.1487V22.0301H39.108V13.1465H41.3275V10.4131H39.108V6.31302ZM50.6472 18.5566C50.0028 19.0917 49.152 19.3882 48.2183 19.3882C46.1601 19.3882 44.6486 17.9922 44.6486 16.0753C44.6486 14.1586 46.112 12.8212 48.2183 12.8212C49.1357 12.8212 50.0028 13.1035 50.6634 13.6385L51.1125 13.9952L53.1078 12.1529L52.6084 11.7367C51.4343 10.7575 49.8755 10.2081 48.2175 10.2081C44.5184 10.2081 41.8321 12.6736 41.8321 16.061C41.8321 19.434 44.5828 21.9877 48.2175 21.9877C49.9065 21.9877 51.4816 21.4383 52.641 20.4433L53.1233 20.0272L51.0969 18.1862L50.6472 18.5566ZM63.6703 11.4258C62.8181 10.6386 61.8193 10.2081 60.4359 10.2081C59.4548 10.2081 58.3436 10.4903 57.6037 11.1135V4.94629H54.6444V22.0301H57.6037V15.6305C57.6037 13.016 59.6146 12.8083 60.3227 12.8083C62.0916 12.8083 62.0428 14.3383 62.0428 15.2594V22.0301H65.002V15.2738C65.002 13.6542 64.6359 12.3176 63.6703 11.4258Z" fill="white"/>
<path d="M48.1219 14.127C48.6894 14.127 49.2336 14.3352 49.6349 14.7058C50.0362 15.0764 50.2615 15.5791 50.2615 16.1032C50.2615 16.6273 50.0362 17.13 49.6349 17.5006C49.2336 17.8712 48.6894 18.0795 48.1219 18.0795C47.5545 18.0795 47.0103 17.8712 46.6091 17.5006C46.2078 17.13 45.9824 16.6273 45.9824 16.1032C45.9824 15.5791 46.2078 15.0764 46.6091 14.7058C47.0103 14.3352 47.5545 14.127 48.1219 14.127Z" fill="#FF3D2E"/>
<path d="M12.7702 17.7414C11.6449 18.8108 10.1164 19.3903 8.50807 19.3903C5.21136 19.3903 2.81431 16.9986 2.81431 13.7158C2.81431 10.418 5.21136 8.0262 8.50807 8.0262C10.1009 8.0262 11.6124 8.605 12.7547 9.66009L13.2045 10.0763L15.1828 8.24895L14.7485 7.83279C13.1083 6.27272 10.8888 5.42676 8.50807 5.42676C3.65106 5.42676 0 8.99175 0 13.7301C0 18.4541 3.66734 22.0048 8.50807 22.0048C10.9051 22.0048 13.1246 21.1438 14.7648 19.5837L15.1991 19.1676L13.2371 17.3109L12.7702 17.7414Z" fill="white"/>
</g>
<defs>
<clipPath id="clip0_527_12833">
<rect width="65.0022" height="24.3232" fill="white"/>
</clipPath>
</defs>
</svg>
