<svg width="40" height="15" viewBox="0 0 40 15" fill="none" xmlns="http://www.w3.org/2000/svg">
<g clip-path="url(#clip0_7_240)">
<path d="M10.3403 3.02417H12.1496V13.4688H10.3403V3.02417ZM18.482 10.1369C18.482 11.7354 17.0269 11.8628 16.594 11.8628C15.5125 11.8628 15.3158 10.9278 15.3158 10.3638V6.36646H13.5065V10.3554C13.5065 11.3456 13.8431 12.1628 14.4329 12.7076C14.9539 13.1892 15.7346 13.4524 16.5804 13.4524C17.1802 13.4524 18.0297 13.2799 18.482 12.8985V13.4688H20.2913V6.36646H18.482V10.1369ZM23.9097 3.85975H22.1005V6.36646H20.7436V8.03758H22.1005V13.4688H23.9097V8.03758H25.2667V6.36646H23.9097V3.85975ZM30.9645 11.3452C30.5705 11.6723 30.0503 11.8536 29.4795 11.8536C28.2212 11.8536 27.2971 11.0001 27.2971 9.82818C27.2971 8.65632 28.1918 7.83872 29.4795 7.83872C30.0404 7.83872 30.5705 8.01127 30.9744 8.33838L31.249 8.55645L32.4689 7.43012L32.1635 7.17568C31.4457 6.57699 30.4927 6.24111 29.4791 6.24111C27.2175 6.24111 25.5752 7.74846 25.5752 9.81941C25.5752 11.8816 27.2569 13.4428 29.4791 13.4428C30.5117 13.4428 31.4747 13.107 32.1835 12.4987L32.4784 12.2442L31.2395 11.1187L30.9645 11.3452ZM38.9265 6.9856C38.4055 6.50432 37.7948 6.24111 36.949 6.24111C36.3492 6.24111 35.6699 6.41366 35.2176 6.79467V3.02417H33.4083V13.4688H35.2176V9.55621C35.2176 7.95776 36.447 7.83079 36.8798 7.83079C37.9613 7.83079 37.9315 8.76619 37.9315 9.32936V13.4688H39.7407V9.33813C39.7407 8.34798 39.5168 7.53078 38.9265 6.9856Z" fill="#313236"/>
<path d="M29.4204 8.63672C29.7673 8.63672 30.1 8.76405 30.3453 8.99063C30.5907 9.21721 30.7285 9.52453 30.7285 9.84494C30.7285 10.1654 30.5907 10.4727 30.3453 10.6993C30.1 10.9259 29.7673 11.0532 29.4204 11.0532C29.0734 11.0532 28.7407 10.9259 28.4954 10.6993C28.2501 10.4727 28.1123 10.1654 28.1123 9.84494C28.1123 9.52453 28.2501 9.21721 28.4954 8.99063C28.7407 8.76405 29.0734 8.63672 29.4204 8.63672Z" fill="#FF3D2E"/>
<path d="M7.8074 10.8465C7.1194 11.5003 6.18491 11.8546 5.20162 11.8546C3.18609 11.8546 1.7206 10.3923 1.7206 8.38533C1.7206 6.36912 3.18609 4.90686 5.20162 4.90686C6.17541 4.90686 7.09953 5.26072 7.7979 5.90578L8.07288 6.16021L9.28236 5.04305L9.01687 4.78861C8.0141 3.83482 6.65714 3.31763 5.20162 3.31763C2.23217 3.31763 0 5.49718 0 8.3941C0 11.2822 2.24212 13.453 5.20162 13.453C6.66708 13.453 8.02403 12.9266 9.0268 11.9728L9.29234 11.7184L8.0928 10.5833L7.8074 10.8465Z" fill="#313236"/>
</g>
<defs>
<clipPath id="clip0_7_240">
<rect width="39.7407" height="14.8706" fill="white"/>
</clipPath>
</defs>
</svg>
