<svg width="34" height="34" viewBox="0 0 34 34" fill="none" xmlns="http://www.w3.org/2000/svg">
<path fill-rule="evenodd" clip-rule="evenodd" d="M2.30154 26.7233V33.3724H0V26.7233H2.30154ZM9.5259 16.6865V33.3724H7.22498V16.6865H9.5259ZM33.373 10.3576V19.7943C33.373 27.2345 27.116 33.373 19.7943 33.373H14.2697V31.032H19.7943C25.8258 31.032 31.0715 25.9434 31.0715 19.7943V18.9461C28.6719 22.5963 24.2661 25.0294 19.7943 25.0294H18.6429V22.6728H19.7943C25.8823 22.6728 31.0715 17.7164 31.0715 11.5083V10.3576H33.373ZM19.1039 0V2.30154H13.5794C7.59748 2.30154 2.31976 7.40641 2.30154 13.7103L2.30217 14.5566C4.74819 10.803 9.34311 8.34419 13.5794 8.34419H14.7308V10.7002H13.5794C7.09056 10.7002 2.30154 16.4165 2.30154 21.8647V23.0154H0V13.5787C0 6.46862 6.06479 0 13.5794 0H19.1039ZM26.2378 0.00062647V16.6865H23.9369V0.00062647H26.2378ZM33.373 0.00062647V6.64967H31.0715V0.00062647H33.373Z" fill="#264EEE"/>
</svg>
