<svg width="259" height="39" viewBox="0 0 259 39" fill="none" xmlns="http://www.w3.org/2000/svg">
<path d="M74.4615 26.2937V6.95117H77.0468V26.2937H74.4615ZM85.3553 33.5119H82.5867L85.6451 26.091L79.348 14.4546H82.2415L86.9086 23.0896L90.4712 14.4546H93.2298L85.3553 33.5119ZM102.31 24.18C104.21 24.18 105.668 22.7457 105.668 20.4196C105.668 18.12 104.614 16.5718 102.448 16.3355C100.634 16.1384 98.8756 17.1456 98.181 18.0822V22.9086C99.034 23.6921 100.687 24.18 102.31 24.18ZM102.382 14.1659C105.906 14.1659 108.08 16.7647 108.08 20.3741C108.08 24.619 105.142 26.5824 102.058 26.5824C100.56 26.5824 99.5028 26.2357 98.6213 25.5717L98.2392 25.283H98.181V33.5119H95.5957V14.4553H98.181V15.849L98.5915 15.4359C99.4147 14.6279 100.736 14.1659 102.382 14.1659ZM113.071 22.3375V22.8499C113.118 23.8131 114.048 24.3876 116.565 24.3876C118.768 24.3876 119.415 23.5502 119.415 22.7129C119.415 22.0782 118.944 21.6735 117.358 21.5002L114.479 21.2115C111.483 20.9228 110.543 19.8254 110.543 18.0354C110.543 16.216 112.306 14.1659 115.978 14.1659C119.944 14.1659 121.412 15.8693 121.412 17.7754L121.411 18.1214H118.845L118.807 17.7139C118.799 17.6216 118.785 17.5286 118.757 17.4399C118.543 16.7584 117.804 16.3607 115.978 16.3607C113.775 16.3607 113.128 17.284 113.128 18.0354C113.128 18.5834 113.422 18.9587 114.656 19.0748L117.476 19.3634C121.176 19.7388 121.999 20.9515 121.999 22.6835C121.999 24.417 120.618 26.5824 116.565 26.5824C112.423 26.5824 110.543 25.1096 110.543 22.7702V22.3375H113.071ZM68.9499 13.829V16.2663H66.9484C61.6578 16.36 57.6399 20.5789 57.6399 25.5968V26.5782H55.1689V18.531C55.1689 12.4674 60.4305 6.95117 66.9484 6.95117H71.7412V9.38847H66.9484C62.1386 9.52617 58.103 12.9986 57.6399 18.0606V18.4212C60.0647 15.3779 63.1536 13.959 66.9484 13.829H68.9499Z" fill="white"/>
<path fill-rule="evenodd" clip-rule="evenodd" d="M2.59989 31.1875V38.6984H0V31.1875H2.59989ZM10.7607 19.8496V38.6984H8.16156V19.8496H10.7607ZM37.6991 12.7002V23.3602C37.6991 31.7649 30.631 38.6991 22.3602 38.6991H16.1195V36.0547H22.3602C29.1736 36.0547 35.0992 30.3064 35.0992 23.3602V22.402C32.3887 26.5255 27.4117 29.274 22.3602 29.274H21.0595V26.6118H22.3602C29.2374 26.6118 35.0992 21.0129 35.0992 14.0002V12.7002H37.6991ZM21.5804 1V3.59989H15.3396C8.58234 3.59989 2.62047 9.3665 2.59989 16.4875L2.6006 17.4436C5.36369 13.2034 10.5543 10.4258 15.3396 10.4258H16.6403V13.0873H15.3396C8.00971 13.0873 2.59989 19.5446 2.59989 25.699V26.9989H0V16.3389C0 8.30715 6.85097 1 15.3396 1H21.5804ZM29.639 1.00071V19.8496H27.0399V1.00071H29.639ZM37.6991 1.00071V8.51166H35.0992V1.00071H37.6991Z" fill="white"/>
<path d="M180.078 7.77848H181.998V15.8507H180.078V12.629H177.019V15.8507H175.111V7.77848H177.019V11.0601H180.078V7.77848Z" fill="white"/>
<path d="M183.851 15.8507V9.77857H185.659V15.8507H183.851ZM184.012 8.7366C183.805 8.537 183.702 8.29746 183.702 8.01801C183.702 7.73856 183.805 7.49902 184.012 7.29941C184.218 7.0998 184.466 7 184.755 7C185.044 7 185.292 7.0998 185.498 7.29941C185.705 7.49902 185.808 7.73856 185.808 8.01801C185.808 8.29746 185.705 8.537 185.498 8.7366C185.292 8.93621 185.044 9.03602 184.755 9.03602C184.466 9.03602 184.218 8.93621 184.012 8.7366Z" fill="white"/>
<path d="M190.247 14.2578C190.635 14.2578 190.936 14.1181 191.151 13.8386C191.374 13.5512 191.485 13.2079 191.485 12.8086C191.485 11.7228 191.077 11.1798 190.259 11.1798C189.896 11.1798 189.611 11.3156 189.405 11.587C189.198 11.8585 189.095 12.2338 189.095 12.7128C189.095 13.2158 189.194 13.5991 189.392 13.8626C189.59 14.1261 189.875 14.2578 190.247 14.2578ZM191.485 9.77857H193.282V15.2638C193.282 16.2379 192.98 16.9685 192.377 17.4556C191.774 17.9506 191.019 18.1981 190.111 18.1981C189.227 18.1981 188.455 18.0464 187.794 17.743V15.9585C188.372 16.4056 189.082 16.6292 189.925 16.6292C190.47 16.6292 190.866 16.5174 191.114 16.2938C191.362 16.0703 191.485 15.719 191.485 15.2399V14.8327C191.122 15.3756 190.544 15.6471 189.751 15.6471C189.058 15.6471 188.459 15.3996 187.955 14.9045C187.46 14.4095 187.212 13.6749 187.212 12.7009C187.212 11.8385 187.452 11.1279 187.931 10.569C188.418 10.0021 189.054 9.71868 189.838 9.71868C190.581 9.71868 191.13 10.0061 191.485 10.581V9.77857Z" fill="white"/>
<path d="M196.762 7.38325V10.8086C197.084 10.082 197.711 9.71868 198.644 9.71868C199.255 9.71868 199.751 9.90632 200.131 10.2816C200.519 10.6569 200.713 11.2237 200.713 11.9823V15.8507H198.905V12.2577C198.905 11.9064 198.814 11.6309 198.632 11.4313C198.45 11.2317 198.215 11.1319 197.926 11.1319C197.802 11.1319 197.682 11.1519 197.567 11.1918C197.459 11.2237 197.34 11.2876 197.208 11.3834C197.075 11.4713 196.968 11.627 196.886 11.8505C196.803 12.0661 196.762 12.3296 196.762 12.641V15.8507H194.953V7.38325H196.762Z" fill="white"/>
<path d="M202.2 13.4314V11.9942H205.508V13.4314H202.2Z" fill="white"/>
<path d="M209.154 11.0601V13.8506C209.154 14.0662 209.216 14.2299 209.34 14.3416C209.472 14.4534 209.642 14.5093 209.848 14.5093C210.178 14.5093 210.472 14.4295 210.728 14.2698V15.719C210.422 15.8467 210.009 15.9106 209.489 15.9106C208.06 15.9106 207.346 15.2199 207.346 13.8386V11.0601H206.442V9.77857H207.346V8.34138H209.154V9.77857H210.616V11.0601H209.154Z" fill="white"/>
<path d="M215.716 12.2577V12.114C215.658 11.4034 215.336 11.0481 214.75 11.0481C214.461 11.0481 214.205 11.1519 213.982 11.3595C213.759 11.5591 213.61 11.8585 213.536 12.2577H215.716ZM217.017 14.0422V15.5034C216.587 15.7748 215.931 15.9106 215.047 15.9106C214.015 15.9106 213.21 15.6231 212.632 15.0483C212.062 14.4654 211.777 13.7189 211.777 12.8086C211.777 11.8425 212.054 11.088 212.607 10.5451C213.169 9.99415 213.858 9.71868 214.676 9.71868C215.518 9.71868 216.183 9.95822 216.67 10.4373C217.157 10.9084 217.401 11.615 217.401 12.5571C217.401 12.7408 217.368 13.0562 217.302 13.5033H213.61C213.734 13.8386 213.949 14.0981 214.254 14.2818C214.56 14.4654 214.927 14.5572 215.357 14.5572C215.993 14.5572 216.546 14.3856 217.017 14.0422Z" fill="white"/>
<path d="M220.463 12.8326C220.496 13.3676 220.661 13.7827 220.958 14.0782C221.255 14.3736 221.648 14.5213 222.135 14.5213C222.655 14.5213 223.155 14.3816 223.634 14.1021V15.5633C223.146 15.8188 222.56 15.9465 221.875 15.9465C220.933 15.9465 220.157 15.6591 219.546 15.0842C218.935 14.5013 218.629 13.7508 218.629 12.8326C218.646 11.9224 218.952 11.1718 219.546 10.581C220.141 9.98217 220.954 9.68275 221.986 9.68275C222.622 9.68275 223.171 9.79853 223.634 10.0301V11.5271C223.196 11.2637 222.709 11.1319 222.172 11.1319C221.668 11.1319 221.26 11.2796 220.946 11.5751C220.632 11.8625 220.471 12.2817 220.463 12.8326Z" fill="white"/>
<path d="M226.802 7.38325V10.8086C227.124 10.082 227.751 9.71868 228.684 9.71868C229.295 9.71868 229.791 9.90632 230.171 10.2816C230.559 10.6569 230.753 11.2237 230.753 11.9823V15.8507H228.944V12.2577C228.944 11.9064 228.854 11.6309 228.672 11.4313C228.49 11.2317 228.255 11.1319 227.966 11.1319C227.842 11.1319 227.722 11.1519 227.607 11.1918C227.499 11.2237 227.38 11.2876 227.247 11.3834C227.115 11.4713 227.008 11.627 226.925 11.8505C226.843 12.0661 226.802 12.3296 226.802 12.641V15.8507H224.993V7.38325H226.802Z" fill="white"/>
<path d="M178.629 24.0237V24.9219C178.249 24.6984 177.729 24.5866 177.069 24.5866C176.738 24.5866 176.474 24.6624 176.276 24.8141C176.086 24.9579 175.991 25.1455 175.991 25.377C175.991 25.5208 176.02 25.6485 176.078 25.7603C176.135 25.8641 176.247 25.9679 176.412 26.0717C176.585 26.1755 176.709 26.2473 176.784 26.2873C176.866 26.3192 177.04 26.3911 177.304 26.5028C177.832 26.7104 178.245 26.946 178.543 27.2095C178.84 27.4729 178.988 27.8282 178.988 28.2754C178.988 28.7944 178.799 29.2056 178.419 29.509C178.047 29.8124 177.535 29.9641 176.883 29.9641C176.123 29.9641 175.508 29.8403 175.037 29.5928V28.6706C175.59 28.99 176.185 29.1497 176.821 29.1497C177.201 29.1497 177.49 29.0778 177.688 28.9341C177.886 28.7904 177.985 28.5947 177.985 28.3472C177.985 28.0598 177.874 27.8362 177.651 27.6765C177.436 27.5169 177.073 27.3372 176.561 27.1376C176.09 26.9619 175.71 26.7424 175.421 26.4789C175.14 26.2154 175 25.8601 175 25.413C175 24.9099 175.194 24.5107 175.582 24.2153C175.979 23.9119 176.47 23.7602 177.056 23.7602C177.709 23.7602 178.233 23.848 178.629 24.0237Z" fill="white"/>
<path d="M183.115 30C182.214 30 181.5 29.7086 180.972 29.1257C180.451 28.5349 180.191 27.7923 180.191 26.8981C180.191 25.9958 180.46 25.2453 180.996 24.6465C181.541 24.0397 182.247 23.7362 183.115 23.7362C184.064 23.7362 184.795 24.0317 185.307 24.6225C185.827 25.2134 186.087 25.9639 186.087 26.8741C186.087 27.7763 185.823 28.5229 185.295 29.1137C184.766 29.7046 184.039 30 183.115 30ZM183.115 24.5746C182.52 24.5746 182.053 24.7982 181.715 25.2453C181.376 25.6924 181.207 26.2394 181.207 26.8861C181.207 27.5169 181.38 28.0558 181.727 28.5029C182.074 28.9421 182.537 29.1616 183.115 29.1616C183.742 29.1616 184.225 28.9461 184.564 28.5149C184.902 28.0758 185.072 27.5328 185.072 26.8861C185.072 26.2154 184.911 25.6645 184.589 25.2333C184.267 24.7942 183.775 24.5746 183.115 24.5746Z" fill="white"/>
<path d="M190.764 21.4248V22.2871C190.565 22.2232 190.375 22.1913 190.194 22.1913C189.93 22.1913 189.711 22.2791 189.537 22.4547C189.372 22.6304 189.29 22.9019 189.29 23.2692V23.8201H190.677V24.5866H189.29V29.8922H188.311V24.5866H187.233V23.8201H188.311V23.2572C188.311 22.6663 188.472 22.1992 188.794 21.8559C189.124 21.5126 189.579 21.3409 190.157 21.3409C190.355 21.3409 190.557 21.3689 190.764 21.4248Z" fill="white"/>
<path d="M193.44 24.5866V28.1436C193.44 28.7904 193.754 29.1137 194.382 29.1137C194.704 29.1137 194.989 29.0219 195.236 28.8383V29.7365C194.964 29.8802 194.658 29.9521 194.32 29.9521C193.081 29.9521 192.462 29.3413 192.462 28.1197V24.5866H191.458V23.8201H192.462V22.311H193.44V23.8201H195.174V24.5866H193.44Z" fill="white"/>
<path d="M198.248 29.8922L196.316 23.8201H197.356L197.963 25.8321C198.178 26.5348 198.355 27.1496 198.496 27.6765C198.644 28.1955 198.739 28.5428 198.781 28.7185L198.843 28.97C198.966 28.459 199.268 27.4091 199.747 25.8202L200.341 23.8201H201.382L201.989 25.8202L202.918 28.982C203.033 28.5109 203.351 27.457 203.872 25.8202L204.503 23.8201H205.507L203.525 29.8922H202.323L201.729 27.9041L200.862 24.874C200.738 25.385 200.457 26.395 200.019 27.9041L199.45 29.8922H198.248Z" fill="white"/>
<path d="M210.35 27.0897H209.26C208.731 27.0897 208.335 27.1895 208.07 27.3891C207.806 27.5887 207.674 27.8402 207.674 28.1436C207.674 28.447 207.777 28.6945 207.984 28.8862C208.19 29.0698 208.492 29.1616 208.888 29.1616C209.334 29.1616 209.689 29.0419 209.953 28.8023C210.218 28.5548 210.35 28.2434 210.35 27.8682V27.0897ZM207.104 25.0896V24.1434C207.575 23.864 208.194 23.7243 208.962 23.7243C210.54 23.7243 211.328 24.4988 211.328 26.0477V29.8922H210.362V29.1736C210.04 29.6926 209.454 29.9521 208.603 29.9521C208.017 29.9521 207.542 29.7844 207.179 29.4491C206.824 29.1137 206.646 28.6906 206.646 28.1796C206.646 27.5967 206.873 27.1456 207.327 26.8262C207.79 26.4988 208.417 26.3352 209.21 26.3352H210.35V26.0238C210.35 25.5447 210.238 25.1854 210.015 24.9459C209.792 24.6984 209.417 24.5746 208.888 24.5746C208.219 24.5746 207.625 24.7463 207.104 25.0896Z" fill="white"/>
<path d="M214.278 23.8201V24.886C214.609 24.1355 215.179 23.7602 215.988 23.7602C216.136 23.7602 216.252 23.7682 216.335 23.7842V24.7183C216.161 24.6624 215.984 24.6345 215.802 24.6345C215.364 24.6345 215.001 24.8301 214.712 25.2213C214.423 25.6126 214.278 26.0637 214.278 26.5747V29.8922H213.3L213.312 23.8201H214.278Z" fill="white"/>
<path d="M221.601 26.4669V26.2274C221.601 25.7244 221.461 25.3251 221.18 25.0297C220.899 24.7263 220.511 24.5746 220.016 24.5746C219.545 24.5746 219.144 24.7383 218.814 25.0656C218.484 25.393 218.29 25.8601 218.232 26.4669H221.601ZM222.183 28.6945V29.5808C221.696 29.8283 221.101 29.9521 220.4 29.9521C219.45 29.9521 218.682 29.6726 218.096 29.1137C217.518 28.5468 217.229 27.8003 217.229 26.8741C217.229 25.908 217.489 25.1455 218.009 24.5866C218.529 24.0277 219.198 23.7482 220.016 23.7482C220.8 23.7482 221.424 23.9917 221.886 24.4788C222.348 24.9658 222.58 25.6565 222.58 26.5507C222.58 26.8062 222.559 27.0418 222.518 27.2574H218.232C218.306 27.8562 218.542 28.3153 218.938 28.6347C219.334 28.954 219.855 29.1137 220.499 29.1137C221.201 29.1137 221.762 28.974 222.183 28.6945Z" fill="white"/>
<path d="M228.557 21.4248V24.874C228.929 24.1155 229.59 23.7362 230.539 23.7362C231.142 23.7362 231.625 23.9159 231.988 24.2752C232.36 24.6345 232.546 25.1215 232.546 25.7363V29.8922H231.567V25.9639C231.567 25.5247 231.448 25.1854 231.208 24.9459C230.977 24.7063 230.671 24.5866 230.292 24.5866C229.829 24.5866 229.424 24.7582 229.078 25.1016C228.731 25.4449 228.557 25.9359 228.557 26.5747V29.8922H227.591V21.4248H228.557Z" fill="white"/>
<path d="M237.08 30C236.18 30 235.465 29.7086 234.937 29.1257C234.417 28.5349 234.157 27.7923 234.157 26.8981C234.157 25.9958 234.425 25.2453 234.962 24.6465C235.507 24.0397 236.213 23.7362 237.08 23.7362C238.029 23.7362 238.76 24.0317 239.272 24.6225C239.792 25.2134 240.053 25.9639 240.053 26.8741C240.053 27.7763 239.788 28.5229 239.26 29.1137C238.731 29.7046 238.005 30 237.08 30ZM237.08 24.5746C236.485 24.5746 236.019 24.7982 235.68 25.2453C235.342 25.6924 235.172 26.2394 235.172 26.8861C235.172 27.5169 235.346 28.0558 235.693 28.5029C236.039 28.9421 236.502 29.1616 237.08 29.1616C237.707 29.1616 238.191 28.9461 238.529 28.5149C238.868 28.0758 239.037 27.5328 239.037 26.8861C239.037 26.2154 238.876 25.6645 238.554 25.2333C238.232 24.7942 237.74 24.5746 237.08 24.5746Z" fill="white"/>
<path d="M245.633 23.8201H246.612V29.8922H245.633V28.8383C245.303 29.5888 244.646 29.9641 243.664 29.9641C243.044 29.9641 242.553 29.7884 242.19 29.4371C241.835 29.0778 241.657 28.5987 241.657 27.9999V23.8201H242.636V27.7604C242.636 28.1995 242.751 28.5349 242.982 28.7664C243.214 28.998 243.527 29.1137 243.924 29.1137C244.444 29.1137 244.857 28.9381 245.162 28.5868C245.476 28.2354 245.633 27.7604 245.633 27.1615V23.8201Z" fill="white"/>
<path d="M252.087 24.0237V24.9219C251.707 24.6984 251.187 24.5866 250.526 24.5866C250.196 24.5866 249.932 24.6624 249.734 24.8141C249.544 24.9579 249.449 25.1455 249.449 25.377C249.449 25.5208 249.478 25.6485 249.535 25.7603C249.593 25.8641 249.705 25.9679 249.87 26.0717C250.043 26.1755 250.167 26.2473 250.241 26.2873C250.324 26.3192 250.497 26.3911 250.762 26.5028C251.29 26.7104 251.703 26.946 252 27.2095C252.298 27.4729 252.446 27.8282 252.446 28.2754C252.446 28.7944 252.256 29.2056 251.876 29.509C251.505 29.8124 250.993 29.9641 250.34 29.9641C249.581 29.9641 248.966 29.8403 248.495 29.5928V28.6706C249.048 28.99 249.643 29.1497 250.279 29.1497C250.658 29.1497 250.947 29.0778 251.146 28.9341C251.344 28.7904 251.443 28.5947 251.443 28.3472C251.443 28.0598 251.331 27.8362 251.108 27.6765C250.894 27.5169 250.53 27.3372 250.018 27.1376C249.548 26.9619 249.168 26.7424 248.879 26.4789C248.598 26.2154 248.458 25.8601 248.458 25.413C248.458 24.9099 248.652 24.5107 249.04 24.2153C249.436 23.9119 249.928 23.7602 250.514 23.7602C251.166 23.7602 251.691 23.848 252.087 24.0237Z" fill="white"/>
<path d="M258.021 26.4669V26.2274C258.021 25.7244 257.881 25.3251 257.6 25.0297C257.32 24.7263 256.931 24.5746 256.436 24.5746C255.965 24.5746 255.565 24.7383 255.234 25.0656C254.904 25.393 254.71 25.8601 254.652 26.4669H258.021ZM258.604 28.6945V29.5808C258.116 29.8283 257.522 29.9521 256.82 29.9521C255.87 29.9521 255.102 29.6726 254.516 29.1137C253.938 28.5468 253.649 27.8003 253.649 26.8741C253.649 25.908 253.909 25.1455 254.429 24.5866C254.95 24.0277 255.618 23.7482 256.436 23.7482C257.22 23.7482 257.844 23.9917 258.306 24.4788C258.769 24.9658 259 25.6565 259 26.5507C259 26.8062 258.979 27.0418 258.938 27.2574H254.652C254.727 27.8562 254.962 28.3153 255.358 28.6347C255.755 28.954 256.275 29.1137 256.919 29.1137C257.621 29.1137 258.182 28.974 258.604 28.6945Z" fill="white"/>
<path fill-rule="evenodd" clip-rule="evenodd" d="M148 38L148 0L149 -4.37113e-08L149 38L148 38Z" fill="white" fill-opacity="0.2"/>
</svg>
