<svg width="26" height="26" viewBox="0 0 26 26" fill="none" xmlns="http://www.w3.org/2000/svg">
<path fill-rule="evenodd" clip-rule="evenodd" d="M1.91446 13.456L4.38342 15.9249C4.48862 16.03 4.54776 16.1726 4.54783 16.3213C4.54791 16.47 4.48891 16.6126 4.38382 16.7178C4.27873 16.823 4.13616 16.8822 3.98747 16.8822C3.83877 16.8823 3.69614 16.8233 3.59094 16.7182L0.164099 13.2914C0.0590268 13.1863 0 13.0437 0 12.8951C0 12.7465 0.0590268 12.604 0.164099 12.4989L3.59094 9.07285C3.64268 9.01947 3.70451 8.97692 3.77285 8.94767C3.84119 8.91841 3.91467 8.90305 3.989 8.90247C4.06333 8.90189 4.13704 8.9161 4.20583 8.94427C4.27462 8.97245 4.33711 9.01403 4.38968 9.0666C4.44224 9.11916 4.48382 9.18166 4.512 9.25045C4.54018 9.31923 4.55439 9.39294 4.55381 9.46727C4.55323 9.54161 4.53786 9.61508 4.50861 9.68342C4.47936 9.75176 4.4368 9.8136 4.38342 9.86533L1.91446 12.3343H7.41363C7.56237 12.3343 7.70502 12.3934 7.8102 12.4986C7.91538 12.6037 7.97446 12.7464 7.97446 12.8951C7.97446 13.0439 7.91538 13.1865 7.8102 13.2917C7.70502 13.3969 7.56237 13.456 7.41363 13.456H1.91446ZM9.86573 4.38302C9.8137 4.43511 9.75191 4.47644 9.6839 4.50465C9.6159 4.53286 9.543 4.5474 9.46937 4.54743C9.39575 4.54747 9.32284 4.533 9.2548 4.50486C9.18677 4.47672 9.12494 4.43546 9.07285 4.38342C9.02076 4.33139 8.97944 4.2696 8.95123 4.2016C8.92302 4.13359 8.90848 4.06069 8.90844 3.98707C8.9084 3.91344 8.92287 3.84053 8.95101 3.77249C8.97915 3.70446 9.02042 3.64263 9.07245 3.59054L12.4985 0.164501C12.5505 0.112354 12.6124 0.0709832 12.6804 0.0427562C12.7485 0.0145292 12.8215 0 12.8951 0C12.9688 0 13.0418 0.0145292 13.1098 0.0427562C13.1779 0.0709832 13.2397 0.112354 13.2918 0.164501L16.7178 3.59054C16.7712 3.64228 16.8138 3.70411 16.843 3.77245C16.8723 3.84079 16.8876 3.91427 16.8882 3.9886C16.8888 4.06293 16.8746 4.13664 16.8464 4.20543C16.8182 4.27422 16.7766 4.33671 16.7241 4.38928C16.6715 4.44184 16.609 4.48342 16.5402 4.5116C16.4714 4.53978 16.3977 4.55399 16.3234 4.55341C16.2491 4.55282 16.1756 4.53746 16.1072 4.50821C16.0389 4.47896 15.9771 4.4364 15.9253 4.38302L13.4556 1.91405V7.41323C13.4556 7.56186 13.3965 7.70441 13.2914 7.80951C13.1863 7.91462 13.0438 7.97366 12.8951 7.97366C12.7465 7.97366 12.6039 7.91462 12.4988 7.80951C12.3937 7.70441 12.3347 7.56186 12.3347 7.41323V1.91405L9.86573 4.38302ZM9.07245 21.4072C9.1245 21.3551 9.18633 21.3137 9.25439 21.2855C9.32245 21.2573 9.39541 21.2427 9.46909 21.2427C9.54277 21.2427 9.61573 21.2573 9.68379 21.2855C9.75185 21.3137 9.81368 21.3551 9.86573 21.4072L12.3347 23.8762V18.377C12.3347 18.2284 12.3937 18.0859 12.4988 17.9808C12.6039 17.8757 12.7465 17.8166 12.8951 17.8166C13.0438 17.8166 13.1863 17.8757 13.2914 17.9808C13.3965 18.0859 13.4556 18.2284 13.4556 18.377V23.8762L15.9253 21.4072C15.9771 21.3539 16.0389 21.3113 16.1072 21.2821C16.1756 21.2528 16.2491 21.2374 16.3234 21.2369C16.3977 21.2363 16.4714 21.2505 16.5402 21.2787C16.609 21.3068 16.6715 21.3484 16.7241 21.401C16.7766 21.4536 16.8182 21.5161 16.8464 21.5848C16.8746 21.6536 16.8888 21.7273 16.8882 21.8017C16.8876 21.876 16.8723 21.9495 16.843 22.0178C16.8138 22.0862 16.7712 22.148 16.7178 22.1997L13.2918 25.6258C13.2397 25.6779 13.1779 25.7193 13.1098 25.7475C13.0418 25.7757 12.9688 25.7903 12.8951 25.7903C12.8215 25.7903 12.7485 25.7757 12.6804 25.7475C12.6124 25.7193 12.5505 25.6779 12.4985 25.6258L9.07245 22.1997C8.96738 22.0946 8.90835 21.9521 8.90835 21.8035C8.90835 21.6549 8.96738 21.5123 9.07245 21.4072ZM17.8162 12.8955C17.8164 12.7467 17.8756 12.6041 17.9808 12.4989C18.086 12.3937 18.2287 12.3345 18.3774 12.3343H23.8766L21.4068 9.86533C21.3018 9.76013 21.2428 9.6175 21.2428 9.46881C21.2429 9.32011 21.3021 9.17754 21.4072 9.07245C21.5124 8.96736 21.6551 8.90837 21.8038 8.90844C21.9525 8.90852 22.095 8.96766 22.2001 9.07285L25.6262 12.4989C25.7312 12.604 25.7903 12.7465 25.7903 12.8951C25.7903 13.0437 25.7312 13.1863 25.6262 13.2914L22.2001 16.7182C22.0949 16.8234 21.9523 16.8825 21.8035 16.8825C21.6547 16.8825 21.512 16.8234 21.4068 16.7182C21.3016 16.613 21.2426 16.4703 21.2426 16.3216C21.2426 16.1728 21.3016 16.0301 21.4068 15.9249L23.8766 13.456H18.3766C18.2281 13.4558 18.0858 13.3966 17.9809 13.2915C17.8759 13.1865 17.8162 13.044 17.8162 12.8955Z" fill="#264EEE"/>
<path d="M13.6211 12.6863C13.6246 12.7982 13.6055 12.9097 13.5651 13.014C13.5246 13.1184 13.4636 13.2136 13.3856 13.294C13.3076 13.3743 13.2142 13.4382 13.111 13.4819C13.0078 13.5255 12.8969 13.548 12.7849 13.548C12.6728 13.548 12.5619 13.5255 12.4587 13.4819C12.3556 13.4382 12.2622 13.3743 12.1842 13.294C12.1062 13.2136 12.0452 13.1184 12.0047 13.014C11.9642 12.9097 11.9452 12.7982 11.9486 12.6863C11.9554 12.4693 12.0464 12.2633 12.2025 12.1122C12.3586 11.961 12.5675 11.8765 12.7849 11.8765C13.0023 11.8765 13.2111 11.961 13.3672 12.1122C13.5233 12.2633 13.6144 12.4693 13.6211 12.6863Z" fill="#264EEE"/>
<path fill-rule="evenodd" clip-rule="evenodd" d="M12.7844 12.4017C12.7088 12.4017 12.6363 12.4317 12.5828 12.4851C12.5294 12.5385 12.4993 12.6109 12.4993 12.6864C12.4993 12.762 12.5294 12.8344 12.5828 12.8878C12.6363 12.9412 12.7088 12.9712 12.7844 12.9712C12.86 12.9712 12.9325 12.9412 12.9859 12.8878C13.0394 12.8344 13.0694 12.762 13.0694 12.6864C13.0694 12.6109 13.0394 12.5385 12.9859 12.4851C12.9325 12.4317 12.86 12.4017 12.7844 12.4017ZM12.7844 13.5222C12.8964 13.5257 13.0079 13.5066 13.1124 13.4662C13.2169 13.4258 13.3122 13.3648 13.3926 13.2869C13.4731 13.209 13.537 13.1157 13.5807 13.0126C13.6244 12.9096 13.6469 12.7988 13.6469 12.6868C13.6469 12.5749 13.6244 12.4641 13.5807 12.361C13.537 12.258 13.4731 12.1647 13.3926 12.0868C13.3122 12.0089 13.2169 11.9479 13.1124 11.9075C13.0079 11.8671 12.8964 11.848 12.7844 11.8515C12.5671 11.8582 12.3609 11.9492 12.2096 12.1051C12.0583 12.261 11.9736 12.4697 11.9736 12.6868C11.9736 12.904 12.0583 13.1127 12.2096 13.2686C12.3609 13.4245 12.5671 13.5155 12.7844 13.5222Z" fill="#264EEE"/>
<path fill-rule="evenodd" clip-rule="evenodd" d="M12.7829 14.9105C13.0785 14.9161 13.3722 14.8628 13.6469 14.7535C13.9216 14.6443 14.1718 14.4814 14.3828 14.2744C14.5939 14.0673 14.7615 13.8203 14.8759 13.5477C14.9903 13.2751 15.0493 12.9825 15.0493 12.6868C15.0493 12.3912 14.9903 12.0985 14.8759 11.826C14.7615 11.5534 14.5939 11.3063 14.3828 11.0993C14.1718 10.8923 13.9216 10.7294 13.6469 10.6201C13.3722 10.5109 13.0785 10.4575 12.7829 10.4632C12.1931 10.4632 11.6274 10.6975 11.2103 11.1146C10.7932 11.5317 10.5589 12.0974 10.5589 12.6872C10.5589 13.2771 10.7932 13.8428 11.2103 14.2599C11.6274 14.677 12.1931 14.9105 12.7829 14.9105ZM12.7829 16.0322C13.2222 16.0322 13.6572 15.9457 14.063 15.7776C14.4688 15.6095 14.8376 15.3631 15.1482 15.0525C15.4588 14.7419 15.7052 14.3731 15.8733 13.9673C16.0414 13.5615 16.1279 13.1265 16.1279 12.6872C16.1279 12.248 16.0414 11.813 15.8733 11.4072C15.7052 11.0013 15.4588 10.6326 15.1482 10.322C14.8376 10.0114 14.4688 9.765 14.063 9.5969C13.6572 9.42881 13.2222 9.34229 12.7829 9.34229C11.8958 9.34229 11.045 9.6947 10.4177 10.322C9.7904 10.9493 9.43799 11.8001 9.43799 12.6872C9.43799 13.5744 9.7904 14.4252 10.4177 15.0525C11.045 15.6798 11.8958 16.0322 12.7829 16.0322Z" fill="#264EEE"/>
</svg>
