<svg width="28" height="25" viewBox="0 0 28 25" fill="none" xmlns="http://www.w3.org/2000/svg">
<path fill-rule="evenodd" clip-rule="evenodd" d="M6.87568 7.79515V5.552H5.896V8.30523L8.67176 10.2483V12.2138H9.65145V9.73819L6.87568 7.79515Z" fill="#264EEE"/>
<path fill-rule="evenodd" clip-rule="evenodd" d="M16.378 7.00415C16.6486 7.00415 16.8679 7.22346 16.8679 7.49399V11.3801H15.8882V7.49399C15.8882 7.22346 16.1075 7.00415 16.378 7.00415Z" fill="#264EEE"/>
<path fill-rule="evenodd" clip-rule="evenodd" d="M11.6578 5.61768C11.9283 5.61768 12.1477 5.83699 12.1477 6.10752V11.6591C12.1477 11.9296 11.9283 12.1489 11.6578 12.1489C11.3873 12.1489 11.168 11.9296 11.168 11.6591V6.10752C11.168 5.83699 11.3873 5.61768 11.6578 5.61768Z" fill="#264EEE"/>
<path fill-rule="evenodd" clip-rule="evenodd" d="M14.3674 3.88647L14.3674 11.6586L13.3877 11.6586L13.3877 3.88647L14.3674 3.88647Z" fill="#264EEE"/>
<path fill-rule="evenodd" clip-rule="evenodd" d="M0 18.0427C0 18.0427 6.21377 24.9821 13.8788 24.9821C21.5439 24.9821 27.7577 18.0427 27.7577 18.0427C27.7577 18.0427 21.5439 11.1033 13.8788 11.1033C6.21377 11.1033 0 18.0427 0 18.0427ZM1.37058 18.0427C1.485 18.1537 1.61385 18.2762 1.75643 18.4083C2.43273 19.0347 3.41258 19.8711 4.62181 20.7063C7.05893 22.3897 10.3314 24.0024 13.8788 24.0024C17.4263 24.0024 20.6988 22.3897 23.1359 20.7063C24.3451 19.8711 25.325 19.0347 26.0013 18.4083C26.1438 18.2762 26.2727 18.1537 26.3871 18.0427C26.2727 17.9317 26.1438 17.8092 26.0013 17.6771C25.325 17.0506 24.3451 16.2143 23.1359 15.3791C20.6988 13.6956 17.4263 12.083 13.8788 12.083C10.3314 12.083 7.05893 13.6956 4.62181 15.3791C3.41258 16.2143 2.43273 17.0506 1.75643 17.6771C1.61385 17.8092 1.485 17.9317 1.37058 18.0427Z" fill="#264EEE"/>
<path fill-rule="evenodd" clip-rule="evenodd" d="M13.6011 21.7814C15.6662 21.7814 17.3403 20.1074 17.3403 18.0423C17.3403 15.9772 15.6662 14.3032 13.6011 14.3032C11.5361 14.3032 9.86201 15.9772 9.86201 18.0423C9.86201 20.1074 11.5361 21.7814 13.6011 21.7814ZM13.6011 22.7611C16.2073 22.7611 18.3199 20.6484 18.3199 18.0423C18.3199 15.4362 16.2073 13.3235 13.6011 13.3235C10.995 13.3235 8.88232 15.4362 8.88232 18.0423C8.88232 20.6484 10.995 22.7611 13.6011 22.7611Z" fill="#264EEE"/>
<path fill-rule="evenodd" clip-rule="evenodd" d="M6.38396 5.12734C6.916 5.12734 7.34731 4.69603 7.34731 4.16399C7.34731 3.63194 6.916 3.20063 6.38396 3.20063C5.85191 3.20063 5.4206 3.63194 5.4206 4.16399C5.4206 4.69603 5.85191 5.12734 6.38396 5.12734ZM6.38396 6.10702C7.45707 6.10702 8.32699 5.2371 8.32699 4.16399C8.32699 3.09087 7.45707 2.22095 6.38396 2.22095C5.31085 2.22095 4.44092 3.09087 4.44092 4.16399C4.44092 5.2371 5.31085 6.10702 6.38396 6.10702Z" fill="#264EEE"/>
<path fill-rule="evenodd" clip-rule="evenodd" d="M13.8798 3.46155C14.5651 3.46155 15.1207 2.90596 15.1207 2.22061C15.1207 1.53527 14.5651 0.979683 13.8798 0.979683C13.1944 0.979683 12.6389 1.53527 12.6389 2.22061C12.6389 2.90596 13.1944 3.46155 13.8798 3.46155ZM13.8798 4.44123C15.1062 4.44123 16.1004 3.44703 16.1004 2.22061C16.1004 0.994203 15.1062 0 13.8798 0C12.6534 0 11.6592 0.994203 11.6592 2.22061C11.6592 3.44703 12.6534 4.44123 13.8798 4.44123Z" fill="#264EEE"/>
<path fill-rule="evenodd" clip-rule="evenodd" d="M20.8195 5.12734C21.3515 5.12734 21.7829 4.69603 21.7829 4.16399C21.7829 3.63194 21.3515 3.20063 20.8195 3.20063C20.2875 3.20063 19.8561 3.63194 19.8561 4.16399C19.8561 4.69603 20.2875 5.12734 20.8195 5.12734ZM20.8195 6.10702C21.8926 6.10702 22.7625 5.2371 22.7625 4.16399C22.7625 3.09087 21.8926 2.22095 20.8195 2.22095C19.7464 2.22095 18.8765 3.09087 18.8765 4.16399C18.8765 5.2371 19.7464 6.10702 20.8195 6.10702Z" fill="#264EEE"/>
<path fill-rule="evenodd" clip-rule="evenodd" d="M21.5853 5.82983V7.99284L19.0871 10.2135V12.4917H18.1074V9.77351L20.6056 7.5529V5.82983H21.5853Z" fill="#264EEE"/>
</svg>
