<svg width="18" height="19" viewBox="0 0 18 19" fill="none" xmlns="http://www.w3.org/2000/svg">
<mask id="path-1-outside-1_7_104" maskUnits="userSpaceOnUse" x="-0.807373" y="0.142822" width="19" height="19" fill="black">
<rect fill="white" x="-0.807373" y="0.142822" width="19" height="19"/>
<path fill-rule="evenodd" clip-rule="evenodd" d="M12.1381 1.6113C12.1381 1.48724 12.1887 1.36825 12.2788 1.28053C12.3689 1.1928 12.4911 1.14352 12.6185 1.14352H14.4875C14.8228 1.14301 15.0956 1.14251 15.3471 1.22299C15.5688 1.29341 15.7718 1.4091 15.9438 1.56251C16.1396 1.73705 16.2724 1.96843 16.4346 2.25161L16.4656 2.30493L17.3841 3.90344C17.4154 3.95714 17.4355 4.01633 17.4432 4.07762C17.4509 4.1389 17.4461 4.20107 17.429 4.26054C17.412 4.32001 17.383 4.37561 17.3438 4.42414C17.3046 4.47267 17.2559 4.51318 17.2006 4.54332C17.1453 4.57346 17.0843 4.59265 17.0214 4.59978C16.9584 4.60691 16.8945 4.60185 16.8336 4.58487C16.7726 4.56789 16.7157 4.53934 16.6661 4.50086C16.6165 4.46239 16.5752 4.41474 16.5446 4.36066L15.6261 2.76215C15.4169 2.39849 15.3611 2.31247 15.2945 2.25362C15.2233 2.19016 15.1392 2.14215 15.0475 2.11279L15.1973 1.66814L15.0475 2.11329C14.9607 2.08562 14.8548 2.08009 14.425 2.08009H12.6185C12.5554 2.08002 12.4928 2.06785 12.4345 2.04425C12.3762 2.02066 12.3232 1.98611 12.2786 1.94258C12.234 1.89905 12.1986 1.84739 12.1745 1.79054C12.1504 1.7337 12.138 1.6728 12.1381 1.6113ZM12.1381 18.0023C12.138 17.9408 12.1503 17.8799 12.1744 17.823C12.1985 17.7661 12.2338 17.7145 12.2784 17.6709C12.3231 17.6274 12.3761 17.5928 12.4344 17.5693C12.4928 17.5457 12.5553 17.5336 12.6185 17.5336H14.425C14.8548 17.5336 14.9607 17.5285 15.0475 17.5004C15.1392 17.4714 15.2234 17.4235 15.2945 17.36C15.3611 17.3012 15.4169 17.2152 15.6261 16.852L16.5446 15.253C16.6069 15.1446 16.7109 15.0648 16.8337 15.031C16.8945 15.0143 16.9581 15.0095 17.0209 15.0167C17.0836 15.0239 17.1443 15.0431 17.1994 15.0732C17.2545 15.1032 17.303 15.1435 17.3421 15.1918C17.3812 15.2402 17.4102 15.2955 17.4273 15.3547C17.4445 15.4139 17.4495 15.4758 17.4421 15.5369C17.4346 15.598 17.4149 15.657 17.3841 15.7107L16.465 17.3087L16.4346 17.362C16.2724 17.6452 16.1396 17.8766 15.9438 18.0511C15.7719 18.2042 15.5685 18.32 15.3471 18.3907C15.0956 18.4711 14.8228 18.4711 14.4875 18.4706H12.6185C12.4911 18.4705 12.3689 18.4211 12.2788 18.3333C12.1887 18.2455 12.1381 18.1265 12.1381 18.0023ZM5.50096 18.0013C5.50102 18.0629 5.48863 18.1238 5.4645 18.1807C5.44036 18.2376 5.40494 18.2893 5.36027 18.3328C5.31561 18.3763 5.26257 18.4109 5.20418 18.4344C5.1458 18.458 5.08321 18.4701 5.02001 18.4701H3.15099C2.81573 18.4701 2.54348 18.4701 2.29139 18.3896C2.07006 18.3191 1.86667 18.2036 1.69473 18.0506C1.49894 17.8766 1.36618 17.6447 1.20397 17.3615L1.17297 17.3087L0.254477 15.7102C0.22361 15.6565 0.203902 15.5975 0.196478 15.5364C0.189054 15.4753 0.194059 15.4134 0.211209 15.3542C0.228358 15.295 0.257315 15.2397 0.296426 15.1913C0.335538 15.143 0.384038 15.1027 0.439158 15.0727C0.494277 15.0426 0.554937 15.0234 0.617673 15.0162C0.680409 15.009 0.743993 15.0138 0.804795 15.0305C0.865596 15.0472 0.922425 15.0754 0.972035 15.1135C1.02165 15.1516 1.06307 15.1988 1.09393 15.2525L2.01295 16.851C2.22165 17.2147 2.27796 17.3007 2.34408 17.3595C2.41485 17.4229 2.49906 17.4707 2.59101 17.5004C2.6778 17.528 2.7837 17.5336 3.21402 17.5336H5.01949C5.14691 17.5336 5.26911 17.5828 5.35921 17.6706C5.44931 17.7583 5.49992 17.8773 5.49992 18.0013H5.50096ZM5.50096 1.6113C5.50082 1.73541 5.45009 1.85439 5.35991 1.9421C5.26973 2.02982 5.14748 2.07908 5.02001 2.07908H3.21402C2.7837 2.07908 2.6778 2.08512 2.59101 2.11279C2.49941 2.14199 2.41524 2.18983 2.34408 2.25312C2.27796 2.31197 2.22165 2.39798 2.01295 2.76165L1.09342 4.36016C1.03108 4.46855 0.927072 4.54839 0.804278 4.58211C0.681483 4.61583 0.54996 4.60068 0.438641 4.53998C0.327322 4.47928 0.245326 4.37801 0.210692 4.25845C0.176058 4.13889 0.191622 4.01082 0.25396 3.90244L1.17297 2.30443L1.20345 2.25111C1.36566 1.96792 1.49842 1.73655 1.69421 1.56201C1.86641 1.40877 2.07016 1.29303 2.2919 1.22249C2.544 1.14201 2.81624 1.14201 3.15151 1.14301H5.02053C5.14795 1.14301 5.27014 1.1923 5.36024 1.28003C5.45034 1.36775 5.50096 1.48673 5.50096 1.6108V1.6113Z"/>
</mask>
<path fill-rule="evenodd" clip-rule="evenodd" d="M12.1381 1.6113C12.1381 1.48724 12.1887 1.36825 12.2788 1.28053C12.3689 1.1928 12.4911 1.14352 12.6185 1.14352H14.4875C14.8228 1.14301 15.0956 1.14251 15.3471 1.22299C15.5688 1.29341 15.7718 1.4091 15.9438 1.56251C16.1396 1.73705 16.2724 1.96843 16.4346 2.25161L16.4656 2.30493L17.3841 3.90344C17.4154 3.95714 17.4355 4.01633 17.4432 4.07762C17.4509 4.1389 17.4461 4.20107 17.429 4.26054C17.412 4.32001 17.383 4.37561 17.3438 4.42414C17.3046 4.47267 17.2559 4.51318 17.2006 4.54332C17.1453 4.57346 17.0843 4.59265 17.0214 4.59978C16.9584 4.60691 16.8945 4.60185 16.8336 4.58487C16.7726 4.56789 16.7157 4.53934 16.6661 4.50086C16.6165 4.46239 16.5752 4.41474 16.5446 4.36066L15.6261 2.76215C15.4169 2.39849 15.3611 2.31247 15.2945 2.25362C15.2233 2.19016 15.1392 2.14215 15.0475 2.11279L15.1973 1.66814L15.0475 2.11329C14.9607 2.08562 14.8548 2.08009 14.425 2.08009H12.6185C12.5554 2.08002 12.4928 2.06785 12.4345 2.04425C12.3762 2.02066 12.3232 1.98611 12.2786 1.94258C12.234 1.89905 12.1986 1.84739 12.1745 1.79054C12.1504 1.7337 12.138 1.6728 12.1381 1.6113ZM12.1381 18.0023C12.138 17.9408 12.1503 17.8799 12.1744 17.823C12.1985 17.7661 12.2338 17.7145 12.2784 17.6709C12.3231 17.6274 12.3761 17.5928 12.4344 17.5693C12.4928 17.5457 12.5553 17.5336 12.6185 17.5336H14.425C14.8548 17.5336 14.9607 17.5285 15.0475 17.5004C15.1392 17.4714 15.2234 17.4235 15.2945 17.36C15.3611 17.3012 15.4169 17.2152 15.6261 16.852L16.5446 15.253C16.6069 15.1446 16.7109 15.0648 16.8337 15.031C16.8945 15.0143 16.9581 15.0095 17.0209 15.0167C17.0836 15.0239 17.1443 15.0431 17.1994 15.0732C17.2545 15.1032 17.303 15.1435 17.3421 15.1918C17.3812 15.2402 17.4102 15.2955 17.4273 15.3547C17.4445 15.4139 17.4495 15.4758 17.4421 15.5369C17.4346 15.598 17.4149 15.657 17.3841 15.7107L16.465 17.3087L16.4346 17.362C16.2724 17.6452 16.1396 17.8766 15.9438 18.0511C15.7719 18.2042 15.5685 18.32 15.3471 18.3907C15.0956 18.4711 14.8228 18.4711 14.4875 18.4706H12.6185C12.4911 18.4705 12.3689 18.4211 12.2788 18.3333C12.1887 18.2455 12.1381 18.1265 12.1381 18.0023ZM5.50096 18.0013C5.50102 18.0629 5.48863 18.1238 5.4645 18.1807C5.44036 18.2376 5.40494 18.2893 5.36027 18.3328C5.31561 18.3763 5.26257 18.4109 5.20418 18.4344C5.1458 18.458 5.08321 18.4701 5.02001 18.4701H3.15099C2.81573 18.4701 2.54348 18.4701 2.29139 18.3896C2.07006 18.3191 1.86667 18.2036 1.69473 18.0506C1.49894 17.8766 1.36618 17.6447 1.20397 17.3615L1.17297 17.3087L0.254477 15.7102C0.22361 15.6565 0.203902 15.5975 0.196478 15.5364C0.189054 15.4753 0.194059 15.4134 0.211209 15.3542C0.228358 15.295 0.257315 15.2397 0.296426 15.1913C0.335538 15.143 0.384038 15.1027 0.439158 15.0727C0.494277 15.0426 0.554937 15.0234 0.617673 15.0162C0.680409 15.009 0.743993 15.0138 0.804795 15.0305C0.865596 15.0472 0.922425 15.0754 0.972035 15.1135C1.02165 15.1516 1.06307 15.1988 1.09393 15.2525L2.01295 16.851C2.22165 17.2147 2.27796 17.3007 2.34408 17.3595C2.41485 17.4229 2.49906 17.4707 2.59101 17.5004C2.6778 17.528 2.7837 17.5336 3.21402 17.5336H5.01949C5.14691 17.5336 5.26911 17.5828 5.35921 17.6706C5.44931 17.7583 5.49992 17.8773 5.49992 18.0013H5.50096ZM5.50096 1.6113C5.50082 1.73541 5.45009 1.85439 5.35991 1.9421C5.26973 2.02982 5.14748 2.07908 5.02001 2.07908H3.21402C2.7837 2.07908 2.6778 2.08512 2.59101 2.11279C2.49941 2.14199 2.41524 2.18983 2.34408 2.25312C2.27796 2.31197 2.22165 2.39798 2.01295 2.76165L1.09342 4.36016C1.03108 4.46855 0.927072 4.54839 0.804278 4.58211C0.681483 4.61583 0.54996 4.60068 0.438641 4.53998C0.327322 4.47928 0.245326 4.37801 0.210692 4.25845C0.176058 4.13889 0.191622 4.01082 0.25396 3.90244L1.17297 2.30443L1.20345 2.25111C1.36566 1.96792 1.49842 1.73655 1.69421 1.56201C1.86641 1.40877 2.07016 1.29303 2.2919 1.22249C2.544 1.14201 2.81624 1.14201 3.15151 1.14301H5.02053C5.14795 1.14301 5.27014 1.1923 5.36024 1.28003C5.45034 1.36775 5.50096 1.48673 5.50096 1.6108V1.6113Z" fill="#264EEE"/>
<path d="M16.4178 2.21708L15.9978 2.44543L16.0933 2.62114L16.5133 2.39278L16.4178 2.21708ZM15.2216 17.4285L15.5465 17.7741L15.6922 17.6371L15.3673 17.2915L15.2216 17.4285ZM1.22082 17.3965L1.64081 17.1677L1.54511 16.992L1.12512 17.2209L1.22082 17.3965ZM2.49624 17.4684L2.34643 17.9131L2.53596 17.9769L2.68578 17.5323L2.49624 17.4684ZM2.41699 2.18467L2.09257 1.83912L1.94676 1.97601L2.27117 2.32157L2.41699 2.18467ZM12.1381 1.6113L12.3381 1.61152V1.6113H12.1381ZM12.6185 1.14352V0.943517V1.14352ZM14.4875 1.14352L14.4875 1.34352L14.4878 1.34352L14.4875 1.14352ZM15.3471 1.22299L15.2862 1.41348L15.2866 1.4136L15.3471 1.22299ZM15.9438 1.56251L15.8107 1.71178L15.8107 1.7118L15.9438 1.56251ZM16.4346 2.25161L16.261 2.35102L16.2617 2.35213L16.4346 2.25161ZM16.4656 2.30493L16.639 2.20529L16.6385 2.20441L16.4656 2.30493ZM17.3841 3.90344L17.2106 4.00308L17.2113 4.00418L17.3841 3.90344ZM16.5446 4.36066L16.7187 4.26214L16.718 4.26102L16.5446 4.36066ZM15.6261 2.76215L15.7995 2.66251L15.7995 2.66242L15.6261 2.76215ZM15.2945 2.25362L15.1613 2.40286L15.1621 2.40353L15.2945 2.25362ZM15.0475 2.11279L14.858 2.04893L14.7932 2.24129L14.9865 2.30324L15.0475 2.11279ZM15.1973 1.66814L15.3869 1.73193L15.0078 1.60428L15.1973 1.66814ZM15.0475 2.11329L14.9868 2.30384L15.1743 2.36362L15.2371 2.17708L15.0475 2.11329ZM12.6185 2.08009L12.6183 2.28009H12.6185V2.08009ZM12.1381 18.0023L12.3381 18.0023L12.3381 18.0019L12.1381 18.0023ZM12.6185 17.5336L12.6185 17.7336H12.6185V17.5336ZM15.0475 17.5004L14.9873 17.3096L14.9858 17.3101L15.0475 17.5004ZM15.2945 17.36L15.1621 17.2101L15.1611 17.2109L15.2945 17.36ZM15.6261 16.852L15.7994 16.9518L15.7995 16.9516L15.6261 16.852ZM16.5446 15.253L16.3712 15.1533L16.3712 15.1534L16.5446 15.253ZM16.8337 15.031L16.7808 14.8382L16.7808 14.8382L16.8337 15.031ZM17.3841 15.7107L17.2107 15.611L17.2107 15.611L17.3841 15.7107ZM16.465 17.3087L16.2917 17.209L16.2914 17.2095L16.465 17.3087ZM16.4346 17.362L16.6081 17.4614L16.6082 17.4613L16.4346 17.362ZM15.9438 18.0511L16.0768 18.2005L16.0769 18.2004L15.9438 18.0511ZM15.3471 18.3907L15.2863 18.2001L15.2862 18.2002L15.3471 18.3907ZM14.4875 18.4706L14.4878 18.2706H14.4875V18.4706ZM12.6185 18.4706L12.6183 18.6706H12.6185V18.4706ZM5.50096 18.0013L5.70096 18.0011L5.70074 17.8013H5.50096V18.0013ZM5.02001 18.4701L5.02001 18.2701H5.02001V18.4701ZM2.29139 18.3896L2.35221 18.1991L2.35211 18.1991L2.29139 18.3896ZM1.69473 18.0506L1.82765 17.9012L1.8276 17.9011L1.69473 18.0506ZM1.20397 17.3615L1.37752 17.2621L1.37646 17.2603L1.20397 17.3615ZM1.17297 17.3087L0.999553 17.4084L1.00048 17.4099L1.17297 17.3087ZM0.254477 15.7102L0.427889 15.6106L0.427848 15.6105L0.254477 15.7102ZM1.09393 15.2525L1.26732 15.1528L1.26731 15.1528L1.09393 15.2525ZM2.01295 16.851L2.18641 16.7514L2.18633 16.7513L2.01295 16.851ZM2.34408 17.3595L2.4775 17.2105L2.47705 17.2101L2.34408 17.3595ZM2.59101 17.5004L2.52958 17.6907L2.53027 17.6909L2.59101 17.5004ZM5.49992 18.0013H5.29992V18.2013H5.49992V18.0013ZM5.50096 1.6113L5.70096 1.61152V1.6113H5.50096ZM5.02001 2.07908L5.02001 1.87908H5.02001V2.07908ZM2.59101 2.11279L2.53027 1.92223L2.53025 1.92224L2.59101 2.11279ZM2.34408 2.25312L2.21116 2.10368L2.21111 2.10372L2.34408 2.25312ZM2.01295 2.76165L2.18631 2.86137L2.18641 2.8612L2.01295 2.76165ZM1.09342 4.36016L0.920054 4.26043L0.920047 4.26045L1.09342 4.36016ZM0.25396 3.90244L0.427331 4.00215L0.427334 4.00214L0.25396 3.90244ZM1.17297 2.30443L1.34635 2.40413L1.3466 2.40368L1.17297 2.30443ZM1.20345 2.25111L1.02991 2.1517L1.02982 2.15185L1.20345 2.25111ZM1.69421 1.56201L1.56125 1.4126L1.56112 1.41272L1.69421 1.56201ZM2.2919 1.22249L2.35254 1.41308L2.35273 1.41301L2.2919 1.22249ZM3.15151 1.14301L3.15091 1.34301H3.15151V1.14301ZM5.02053 1.14301V0.943014V1.14301ZM12.3381 1.6113C12.3381 1.54203 12.3663 1.47448 12.4183 1.42382L12.1393 1.13723C12.0111 1.26203 11.9381 1.43245 11.9381 1.6113H12.3381ZM12.4183 1.42382C12.4705 1.37299 12.5425 1.34352 12.6185 1.34352V0.943517C12.4398 0.943517 12.2673 1.01261 12.1393 1.13723L12.4183 1.42382ZM12.6185 1.34352H14.4875V0.943517H12.6185V1.34352ZM14.4878 1.34352C14.8312 1.343 15.0703 1.3444 15.2862 1.41348L15.4081 1.0325C15.1209 0.940621 14.8144 0.943027 14.4872 0.943518L14.4878 1.34352ZM15.2866 1.4136C15.4815 1.47553 15.6598 1.57718 15.8107 1.71178L16.0769 1.41325C15.8838 1.24101 15.656 1.11128 15.4077 1.03238L15.2866 1.4136ZM15.8107 1.7118C15.9777 1.86064 16.0949 2.06105 16.261 2.35102L16.6081 2.1522C16.4498 1.8758 16.3015 1.61346 16.0769 1.41322L15.8107 1.7118ZM16.2617 2.35213L16.2927 2.40544L16.6385 2.20441L16.6075 2.1511L16.2617 2.35213ZM16.2921 2.40457L17.2106 4.00308L17.5575 3.8038L16.639 2.20529L16.2921 2.40457ZM17.2113 4.00418C17.2291 4.03476 17.2404 4.06822 17.2447 4.10261L17.6416 4.05262C17.6305 3.96445 17.6016 3.87951 17.5568 3.8027L17.2113 4.00418ZM17.2447 4.10261C17.2491 4.13701 17.2464 4.17192 17.2368 4.20542L17.6213 4.31566C17.6458 4.23022 17.6527 4.1408 17.6416 4.05262L17.2447 4.10261ZM17.2368 4.20542C17.2272 4.23893 17.2108 4.27058 17.1882 4.29846L17.4994 4.54982C17.5553 4.48065 17.5968 4.40109 17.6213 4.31566L17.2368 4.20542ZM17.1882 4.29846C17.1657 4.32636 17.1375 4.34997 17.1049 4.36768L17.2963 4.71896C17.3744 4.67639 17.4435 4.61899 17.4994 4.54982L17.1882 4.29846ZM17.1049 4.36768C17.0724 4.3854 17.0363 4.39681 16.9989 4.40105L17.0438 4.79851C17.1323 4.7885 17.2181 4.76152 17.2963 4.71896L17.1049 4.36768ZM16.9989 4.40105C16.9614 4.4053 16.9234 4.40227 16.8872 4.3922L16.7799 4.77754C16.8657 4.80142 16.9554 4.80853 17.0438 4.79851L16.9989 4.40105ZM16.8872 4.3922C16.8511 4.38213 16.8176 4.36527 16.7887 4.34285L16.5435 4.65888C16.6138 4.71341 16.6942 4.75366 16.7799 4.77754L16.8872 4.3922ZM16.7887 4.34285C16.7598 4.32043 16.7361 4.29294 16.7187 4.26214L16.3705 4.45918C16.4143 4.53654 16.4732 4.60434 16.5435 4.65888L16.7887 4.34285ZM16.718 4.26102L15.7995 2.66251L15.4527 2.86179L16.3712 4.4603L16.718 4.26102ZM15.7995 2.66242C15.6954 2.48145 15.6264 2.36415 15.5744 2.28439C15.5211 2.20269 15.4792 2.14992 15.4268 2.10371L15.1621 2.40353C15.1764 2.41618 15.1956 2.43584 15.2393 2.50278C15.2841 2.57165 15.3476 2.67918 15.4527 2.86188L15.7995 2.66242ZM15.4276 2.10439C15.3354 2.02211 15.2266 1.96016 15.1086 1.92233L14.9865 2.30324C15.0517 2.32415 15.1113 2.35821 15.1613 2.40286L15.4276 2.10439ZM15.2371 2.17664L15.3869 1.732L15.0078 1.60428L14.858 2.04893L15.2371 2.17664ZM15.0078 1.60435L14.858 2.0495L15.2371 2.17708L15.3869 1.73193L15.0078 1.60435ZM15.1083 1.92274C14.9843 1.88323 14.8393 1.88009 14.425 1.88009V2.28009C14.8704 2.28009 14.9371 2.28802 14.9868 2.30384L15.1083 1.92274ZM14.425 1.88009H12.6185V2.28009H14.425V1.88009ZM12.6187 1.88009C12.5811 1.88005 12.544 1.87279 12.5095 1.85885L12.3595 2.22966C12.4417 2.2629 12.5296 2.28 12.6183 2.28009L12.6187 1.88009ZM12.5095 1.85885C12.4751 1.84491 12.4441 1.82463 12.4183 1.79943L12.1389 2.08572C12.2023 2.14758 12.2773 2.19641 12.3595 2.22966L12.5095 1.85885ZM12.4183 1.79943C12.3925 1.77424 12.3723 1.74464 12.3586 1.71245L11.9904 1.86864C12.0249 1.95013 12.0755 2.02385 12.1389 2.08572L12.4183 1.79943ZM12.3586 1.71245C12.345 1.68028 12.3381 1.646 12.3381 1.61152L11.9381 1.61108C11.938 1.69959 11.9558 1.78712 11.9904 1.86864L12.3586 1.71245ZM12.3381 18.0019C12.338 17.9674 12.3449 17.9332 12.3585 17.901L11.9902 17.745C11.9557 17.8266 11.9379 17.9142 11.9381 18.0028L12.3381 18.0019ZM12.3585 17.901C12.3722 17.8688 12.3923 17.8392 12.4181 17.8141L12.1388 17.5278C12.0753 17.5897 12.0247 17.6635 11.9902 17.745L12.3585 17.901ZM12.4181 17.8141C12.4439 17.7889 12.4749 17.7686 12.5093 17.7547L12.3595 17.3838C12.2773 17.417 12.2022 17.4659 12.1388 17.5278L12.4181 17.8141ZM12.5093 17.7547C12.5438 17.7408 12.5809 17.7336 12.6185 17.7336L12.6185 17.3336C12.5298 17.3336 12.4418 17.3506 12.3595 17.3838L12.5093 17.7547ZM12.6185 17.7336H14.425V17.3336H12.6185V17.7336ZM14.425 17.7336C14.6389 17.7336 14.7782 17.7323 14.8754 17.7272C14.9747 17.722 15.0423 17.7123 15.1093 17.6906L14.9858 17.3101C14.9659 17.3166 14.9372 17.3234 14.8544 17.3278C14.7695 17.3322 14.641 17.3336 14.425 17.3336V17.7336ZM15.1078 17.6911C15.2262 17.6536 15.3354 17.5917 15.4278 17.5091L15.1611 17.2109C15.1115 17.2553 15.0522 17.2891 14.9873 17.3096L15.1078 17.6911ZM15.4268 17.5099C15.4791 17.4637 15.5211 17.411 15.5743 17.3294C15.6263 17.2497 15.6953 17.1325 15.7994 16.9518L15.4528 16.7522C15.3477 16.9346 15.2842 17.042 15.2393 17.1109C15.1957 17.1778 15.1764 17.1974 15.1621 17.2101L15.4268 17.5099ZM15.7995 16.9516L16.718 15.3526L16.3712 15.1534L15.4527 16.7524L15.7995 16.9516ZM16.718 15.3527C16.7535 15.2909 16.8137 15.2439 16.8867 15.2239L16.7808 14.8382C16.6082 14.8856 16.4604 14.9982 16.3712 15.1533L16.718 15.3527ZM16.8867 15.2239C16.9228 15.214 16.9606 15.2111 16.998 15.2154L17.0438 14.818C16.9556 14.8078 16.8663 14.8147 16.7808 14.8382L16.8867 15.2239ZM16.998 15.2154C17.0353 15.2197 17.0712 15.2311 17.1036 15.2488L17.2951 14.8976C17.2173 14.8551 17.1319 14.8282 17.0438 14.818L16.998 15.2154ZM17.1036 15.2488C17.136 15.2664 17.1642 15.2899 17.1867 15.3177L17.4975 15.066C17.4418 14.9972 17.373 14.94 17.2951 14.8976L17.1036 15.2488ZM17.1867 15.3177C17.2091 15.3455 17.2256 15.377 17.2352 15.4103L17.6194 15.299C17.5948 15.214 17.5533 15.1348 17.4975 15.066L17.1867 15.3177ZM17.2352 15.4103C17.2449 15.4437 17.2477 15.4785 17.2435 15.5128L17.6406 15.561C17.6513 15.4731 17.6441 15.3841 17.6194 15.299L17.2352 15.4103ZM17.2435 15.5128C17.2393 15.5471 17.2283 15.5804 17.2107 15.611L17.5574 15.8104C17.6016 15.7336 17.6299 15.6489 17.6406 15.561L17.2435 15.5128ZM17.2107 15.611L16.2917 17.209L16.6384 17.4084L17.5574 15.8104L17.2107 15.611ZM16.2914 17.2095L16.2609 17.2628L16.6082 17.4613L16.6387 17.408L16.2914 17.2095ZM16.261 17.2626C16.0949 17.5526 15.9777 17.753 15.8107 17.9018L16.0769 18.2004C16.3015 18.0002 16.4498 17.7378 16.6081 17.4614L16.261 17.2626ZM15.8108 17.9018C15.66 18.0361 15.4813 18.1379 15.2863 18.2001L15.408 18.5812C15.6558 18.5021 15.8838 18.3724 16.0768 18.2005L15.8108 17.9018ZM15.2862 18.2002C15.0702 18.2693 14.8309 18.2711 14.4878 18.2706L14.4872 18.6706C14.8148 18.6711 15.121 18.673 15.4081 18.5811L15.2862 18.2002ZM14.4875 18.2706H12.6185V18.6706H14.4875V18.2706ZM12.6187 18.2706C12.5426 18.2705 12.4706 18.241 12.4184 18.1901L12.1392 18.4765C12.2671 18.6012 12.4395 18.6704 12.6183 18.6706L12.6187 18.2706ZM12.4184 18.1901C12.3663 18.1393 12.3381 18.0717 12.3381 18.0023L11.9381 18.0023C11.9381 18.1812 12.0111 18.3516 12.1392 18.4765L12.4184 18.1901ZM5.30096 18.0016C5.30099 18.0361 5.29406 18.0704 5.28039 18.1026L5.6486 18.2588C5.68321 18.1773 5.70105 18.0897 5.70096 18.0011L5.30096 18.0016ZM5.28039 18.1026C5.26672 18.1348 5.24652 18.1644 5.22067 18.1896L5.49987 18.476C5.56336 18.4141 5.61399 18.3404 5.6486 18.2588L5.28039 18.1026ZM5.22067 18.1896C5.19482 18.2148 5.16382 18.235 5.12932 18.249L5.27904 18.6199C5.36131 18.5867 5.4364 18.5379 5.49987 18.476L5.22067 18.1896ZM5.12932 18.249C5.09482 18.2629 5.05766 18.2701 5.02001 18.2701L5.02001 18.6701C5.10877 18.6701 5.19677 18.6531 5.27904 18.6199L5.12932 18.249ZM5.02001 18.2701H3.15099V18.6701H5.02001V18.2701ZM3.15099 18.2701C2.80781 18.2701 2.56895 18.2683 2.35221 18.1991L2.23056 18.5802C2.51802 18.6719 2.82364 18.6701 3.15099 18.6701V18.2701ZM2.35211 18.1991C2.15719 18.137 1.97846 18.0353 1.82765 17.9012L1.56181 18.2001C1.75488 18.3718 1.98292 18.5013 2.23067 18.5802L2.35211 18.1991ZM1.8276 17.9011C1.66087 17.7529 1.54375 17.5523 1.37751 17.2621L1.03042 17.4609C1.18861 17.7371 1.33701 18.0002 1.56185 18.2001L1.8276 17.9011ZM1.37646 17.2603L1.34546 17.2075L1.00048 17.4099L1.03148 17.4628L1.37646 17.2603ZM1.34638 17.2091L0.427889 15.6106L0.0810653 15.8098L0.999561 17.4084L1.34638 17.2091ZM0.427848 15.6105C0.41027 15.5799 0.399185 15.5465 0.395017 15.5123L-0.00206118 15.5605C0.00861924 15.6484 0.0369503 15.7331 0.081106 15.8099L0.427848 15.6105ZM0.395017 15.5123C0.39085 15.478 0.393648 15.4432 0.403311 15.4098L0.0191061 15.2985C-0.00552924 15.3836 -0.0127423 15.4726 -0.00206118 15.5605L0.395017 15.5123ZM0.403311 15.4098C0.412977 15.3765 0.429387 15.345 0.451863 15.3172L0.140989 15.0655C0.0852427 15.1343 0.0437384 15.2135 0.0191061 15.2985L0.403311 15.4098ZM0.451863 15.3172C0.474349 15.2894 0.5025 15.2659 0.534902 15.2482L0.343413 14.8971C0.265576 14.9395 0.196726 14.9967 0.140989 15.0655L0.451863 15.3172ZM0.534902 15.2482C0.567313 15.2306 0.603219 15.2192 0.640566 15.2149L0.59478 14.8175C0.506654 14.8277 0.421241 14.8546 0.343413 14.8971L0.534902 15.2482ZM0.640566 15.2149C0.677917 15.2106 0.715748 15.2135 0.75183 15.2234L0.857759 14.8377C0.772238 14.8142 0.682901 14.8073 0.59478 14.8175L0.640566 15.2149ZM0.75183 15.2234C0.787906 15.2333 0.821326 15.2499 0.850254 15.2721L1.09382 14.9549C1.02352 14.9009 0.943286 14.8612 0.857759 14.8377L0.75183 15.2234ZM0.850254 15.2721C0.879169 15.2943 0.902976 15.3216 0.920563 15.3522L1.26731 15.1528C1.22316 15.076 1.16412 15.0088 1.09382 14.9549L0.850254 15.2721ZM0.920547 15.3522L1.83956 16.9507L2.18633 16.7513L1.26732 15.1528L0.920547 15.3522ZM1.83948 16.9505C2.04032 17.3005 2.11459 17.423 2.21111 17.5089L2.47705 17.2101C2.44132 17.1783 2.40297 17.1288 2.18641 16.7514L1.83948 16.9505ZM2.21066 17.5085C2.30297 17.5912 2.41191 17.6527 2.52958 17.6907L2.65244 17.31C2.5862 17.2886 2.52673 17.2546 2.4775 17.2105L2.21066 17.5085ZM2.53027 17.6909C2.65421 17.7304 2.79923 17.7336 3.21402 17.7336V17.3336C2.76817 17.3336 2.70138 17.3256 2.65175 17.3098L2.53027 17.6909ZM3.21402 17.7336H5.01949V17.3336H3.21402V17.7336ZM5.01949 17.7336C5.09557 17.7336 5.16748 17.763 5.21969 17.8139L5.49873 17.5273C5.37074 17.4026 5.19826 17.3336 5.01949 17.3336V17.7336ZM5.21969 17.8139C5.27171 17.8645 5.29992 17.9321 5.29992 18.0013H5.69992C5.69992 17.8225 5.6269 17.6521 5.49873 17.5273L5.21969 17.8139ZM5.49992 18.2013H5.50096V17.8013H5.49992V18.2013ZM5.30096 1.61108C5.30088 1.68044 5.27258 1.74805 5.22046 1.79874L5.49935 2.08547C5.6276 1.96074 5.70076 1.79038 5.70096 1.61152L5.30096 1.61108ZM5.22046 1.79874C5.16817 1.8496 5.09616 1.87908 5.02001 1.87908L5.02001 2.27908C5.19879 2.27908 5.37129 2.21003 5.49935 2.08547L5.22046 1.79874ZM5.02001 1.87908H3.21402V2.27908H5.02001V1.87908ZM3.21402 1.87908C2.79862 1.87908 2.65409 1.88276 2.53027 1.92223L2.65175 2.30334C2.7015 2.28748 2.76877 2.27908 3.21402 2.27908V1.87908ZM2.53025 1.92224C2.41225 1.95986 2.30344 2.0216 2.21116 2.10368L2.477 2.40256C2.52704 2.35805 2.58657 2.32412 2.65177 2.30333L2.53025 1.92224ZM2.21111 2.10372C2.11459 2.18962 2.04033 2.31213 1.83948 2.6621L2.18641 2.8612C2.40297 2.48384 2.44132 2.43432 2.47705 2.40252L2.21111 2.10372ZM1.83958 2.66192L0.920054 4.26043L1.26678 4.45988L2.18631 2.86137L1.83958 2.66192ZM0.920047 4.26045C0.884533 4.32219 0.824312 4.3692 0.751313 4.38925L0.857243 4.77497C1.02983 4.72757 1.17762 4.6149 1.26679 4.45987L0.920047 4.26045ZM0.751313 4.38925C0.678212 4.40932 0.600019 4.40017 0.534385 4.36439L0.342897 4.71557C0.499901 4.80118 0.684755 4.82234 0.857243 4.77497L0.751313 4.38925ZM0.534385 4.36439C0.468917 4.32869 0.422281 4.27007 0.402795 4.2028L0.0185895 4.3141C0.0683712 4.48595 0.185727 4.62987 0.342897 4.71557L0.534385 4.36439ZM0.402795 4.2028C0.383353 4.13569 0.39194 4.06368 0.427331 4.00215L0.0805894 3.80272C-0.00869642 3.95797 -0.0312372 4.14209 0.0185895 4.3141L0.402795 4.2028ZM0.427334 4.00214L1.34635 2.40413L0.999599 2.20472L0.0805865 3.80273L0.427334 4.00214ZM1.3466 2.40368L1.37708 2.35036L1.02982 2.15185L0.99934 2.20517L1.3466 2.40368ZM1.377 2.35052C1.54309 2.06055 1.66034 1.86013 1.8273 1.7113L1.56112 1.41272C1.3365 1.61296 1.18823 1.8753 1.02991 2.1517L1.377 2.35052ZM1.82717 1.71142C1.9782 1.57701 2.15726 1.4752 2.35254 1.41308L2.23127 1.0319C1.98306 1.11086 1.75461 1.24054 1.56125 1.4126L1.82717 1.71142ZM2.35273 1.41301C2.56929 1.34388 2.80824 1.34199 3.15091 1.34301L3.15211 0.943015C2.82425 0.942032 2.51871 0.940137 2.23108 1.03196L2.35273 1.41301ZM3.15151 1.34301H5.02053V0.943014H3.15151V1.34301ZM5.02053 1.34301C5.0966 1.34301 5.16851 1.37249 5.22072 1.42332L5.49977 1.13673C5.37178 1.01211 5.19929 0.943014 5.02053 0.943014V1.34301ZM5.22072 1.42332C5.27274 1.47397 5.30096 1.54152 5.30096 1.6108H5.70096C5.70096 1.43194 5.62794 1.26153 5.49977 1.13673L5.22072 1.42332ZM5.30096 1.6108V1.6113H5.70096V1.6108H5.30096Z" fill="#264EEE" mask="url(#path-1-outside-1_7_104)"/>
<path d="M3.25854 9.98913L3.17917 9.92831L3.13256 9.98914L3.17918 10.05L3.25854 9.98913ZM3.25854 9.98913C3.17918 10.05 3.1792 10.05 3.17924 10.05L3.17936 10.0502L3.17978 10.0508L3.18131 10.0527L3.18711 10.0602L3.20955 10.0886C3.22927 10.1133 3.25842 10.1493 3.29654 10.195C3.37277 10.2864 3.4849 10.4166 3.62913 10.5727C3.91749 10.8848 4.33477 11.3009 4.8507 11.7173C5.87989 12.5478 7.31472 13.3898 8.909 13.3898C10.503 13.3898 11.9379 12.5477 12.9671 11.717C13.4831 11.3006 13.9004 10.8844 14.1888 10.5723C14.333 10.4162 14.4452 10.2859 14.5214 10.1945C14.5596 10.1488 14.5887 10.1128 14.6084 10.0881L14.6309 10.0597L14.6367 10.0522L14.6382 10.0502L14.6386 10.0497L14.6388 10.0495C14.6388 10.0495 14.6388 10.0495 14.5594 9.98863M3.25854 9.98913C3.17917 9.92831 3.1792 9.92827 3.17924 9.92822L3.17936 9.92806L3.17978 9.92752L3.1813 9.92554L3.18711 9.91808L3.20955 9.88969C3.22926 9.86498 3.25842 9.82896 3.29654 9.78324C3.37277 9.69182 3.48489 9.56159 3.62913 9.40547C3.91748 9.09336 4.33477 8.67716 4.8507 8.26074C5.87988 7.43008 7.31472 6.58799 8.909 6.58799C10.503 6.58799 11.9378 7.42995 12.9671 8.26049C13.4831 8.67683 13.9004 9.09297 14.1888 9.40503C14.333 9.56113 14.4452 9.69134 14.5214 9.78275C14.5596 9.82846 14.5887 9.86447 14.6084 9.88918L14.6309 9.91757L14.6367 9.92502L14.6382 9.927L14.6386 9.92755L14.6387 9.92771C14.6388 9.92775 14.6388 9.92779 14.5594 9.98863M14.5594 9.98863L14.6388 10.0495L14.6854 9.98862L14.6388 9.92779L14.5594 9.98863ZM5.59027 10.8404C6.54447 11.6101 7.7176 12.2532 8.909 12.2532C10.1004 12.2532 11.2735 11.6106 12.2276 10.8405L5.59027 10.8404ZM5.59027 10.8404C5.26284 10.5751 4.95223 10.2909 4.66015 9.98911C4.95225 9.68719 5.26289 9.40272 5.59037 9.13729C6.54397 8.36715 7.7176 7.72456 8.909 7.72456C10.1004 7.72456 11.2735 8.36716 12.2277 9.13734C12.5551 9.40262 12.8657 9.68691 13.1578 9.98865C12.8658 10.2905 12.5552 10.5749 12.2278 10.8403L5.59027 10.8404Z" fill="#264EEE" stroke="#264EEE" stroke-width="0.2"/>
<path d="M9.18587 10.2529C9.11274 10.3241 9.01299 10.3645 8.90843 10.3645C8.80388 10.3645 8.70413 10.3241 8.63099 10.2529C8.55795 10.1817 8.51742 10.0859 8.51742 9.98645C8.51742 9.88705 8.55795 9.79116 8.63099 9.72004C8.70413 9.64882 8.80388 9.60836 8.90843 9.60836C9.01299 9.60836 9.11274 9.64882 9.18587 9.72004C9.25892 9.79116 9.29945 9.88705 9.29945 9.98645C9.29945 10.0859 9.25892 10.1817 9.18587 10.2529ZM8.9066 11.5011C9.11262 11.5049 9.31741 11.4686 9.50901 11.3944C9.70061 11.3202 9.87528 11.2095 10.0227 11.0686C10.1702 10.9277 10.2875 10.7595 10.3676 10.5737C10.4477 10.3878 10.489 10.1882 10.489 9.98645C10.489 9.78473 10.4477 9.58509 10.3676 9.39924C10.2875 9.2134 10.1702 9.04516 10.0227 8.90426C9.87528 8.76338 9.70061 8.65266 9.50901 8.57846C9.31741 8.50426 9.11262 8.46802 8.9066 8.4718C8.50065 8.47926 8.11338 8.64149 7.82821 8.92444C7.54296 9.20748 7.38267 9.58876 7.38267 9.98645C7.38267 10.3841 7.54296 10.7654 7.82821 11.0485C8.11338 11.3314 8.50065 11.4937 8.9066 11.5011Z" fill="#264EEE" stroke="#264EEE" stroke-width="0.2"/>
<path d="M9.18587 10.2529C9.11274 10.3241 9.01299 10.3645 8.90843 10.3645C8.80388 10.3645 8.70413 10.3241 8.63099 10.2529C8.55795 10.1817 8.51742 10.0859 8.51742 9.98645C8.51742 9.88705 8.55795 9.79116 8.63099 9.72004C8.70413 9.64882 8.80388 9.60836 8.90843 9.60836C9.01299 9.60836 9.11274 9.64882 9.18587 9.72004C9.25892 9.79116 9.29945 9.88705 9.29945 9.98645C9.29945 10.0859 9.25892 10.1817 9.18587 10.2529ZM8.9066 11.5011C9.11262 11.5049 9.31741 11.4686 9.50901 11.3944C9.70061 11.3202 9.87528 11.2095 10.0227 11.0686C10.1702 10.9277 10.2875 10.7595 10.3676 10.5737C10.4477 10.3878 10.489 10.1882 10.489 9.98645C10.489 9.78473 10.4477 9.58509 10.3676 9.39924C10.2875 9.2134 10.1702 9.04516 10.0227 8.90426C9.87528 8.76338 9.70061 8.65266 9.50901 8.57846C9.31741 8.50426 9.11262 8.46802 8.9066 8.4718C8.50065 8.47926 8.11338 8.64149 7.82821 8.92444C7.54296 9.20748 7.38267 9.58876 7.38267 9.98645C7.38267 10.3841 7.54296 10.7654 7.82821 11.0485C8.11338 11.3314 8.50065 11.4937 8.9066 11.5011Z" fill="#264EEE" stroke="#264EEE" stroke-width="0.2"/>
<path d="M9.18587 10.2529C9.11274 10.3241 9.01299 10.3645 8.90843 10.3645C8.80388 10.3645 8.70413 10.3241 8.63099 10.2529C8.55795 10.1817 8.51742 10.0859 8.51742 9.98645C8.51742 9.88705 8.55795 9.79116 8.63099 9.72004C8.70413 9.64882 8.80388 9.60836 8.90843 9.60836C9.01299 9.60836 9.11274 9.64882 9.18587 9.72004C9.25892 9.79116 9.29945 9.88705 9.29945 9.98645C9.29945 10.0859 9.25892 10.1817 9.18587 10.2529ZM8.9066 11.5011C9.11262 11.5049 9.31741 11.4686 9.50901 11.3944C9.70061 11.3202 9.87528 11.2095 10.0227 11.0686C10.1702 10.9277 10.2875 10.7595 10.3676 10.5737C10.4477 10.3878 10.489 10.1882 10.489 9.98645C10.489 9.78473 10.4477 9.58509 10.3676 9.39924C10.2875 9.2134 10.1702 9.04516 10.0227 8.90426C9.87528 8.76338 9.70061 8.65266 9.50901 8.57846C9.31741 8.50426 9.11262 8.46802 8.9066 8.4718C8.50065 8.47926 8.11338 8.64149 7.82821 8.92444C7.54296 9.20748 7.38267 9.58876 7.38267 9.98645C7.38267 10.3841 7.54296 10.7654 7.82821 11.0485C8.11338 11.3314 8.50065 11.4937 8.9066 11.5011Z" fill="#264EEE" stroke="#264EEE" stroke-width="0.2"/>
</svg>
