<svg width="16" height="19" viewBox="0 0 16 19" fill="none" xmlns="http://www.w3.org/2000/svg">
<path d="M10.7641 18.6564L10.7975 18.7514L10.8922 18.7174C14.2081 17.5278 16.1146 13.6002 15.8172 10.1644C15.6662 8.42096 14.947 6.74764 13.5093 5.58506C12.0707 4.42174 9.98122 3.82487 7.19482 4.09738L7.09549 4.10709L7.10501 4.20643L7.1885 5.07834L7.19805 5.17808L7.29778 5.16833C9.88544 4.91526 11.6748 5.48069 12.842 6.42455C14.0102 7.36916 14.6237 8.74785 14.7544 10.258C15.0203 13.3295 13.2865 16.7164 10.5347 17.7036L10.4412 17.7372L10.4741 17.8309L10.7641 18.6564ZM8.64575 17.7723L8.64559 17.6723L8.54558 17.6725L0.744459 17.6858L0.644462 17.686L0.644629 17.786L0.64609 18.6619L0.646256 18.7619L0.74626 18.7618L8.54738 18.7485L8.64738 18.7483L8.64721 18.6483L8.64575 17.7723Z" fill="#264EEE" stroke="#264EEE" stroke-width="0.2"/>
<path d="M2.47919 11.7541H6.81315C7.23564 11.7541 7.57994 12.1005 7.57994 12.53V13.406C7.57994 13.8356 7.23564 14.182 6.81315 14.182H2.47919C2.05669 14.182 1.7124 13.8356 1.7124 13.406V12.53C1.7124 12.1005 2.05669 11.7541 2.47919 11.7541ZM2.47919 10.6781C1.46554 10.6781 0.645605 11.5082 0.645605 12.53V13.406C0.645605 14.4278 1.46554 15.258 2.47919 15.258H6.81315C7.8268 15.258 8.64673 14.4278 8.64673 13.406V12.53C8.64673 11.5082 7.8268 10.6781 6.81315 10.6781H2.47919Z" fill="#264EEE" stroke="#264EEE" stroke-width="0.2"/>
<path d="M7.67944 11.7543L7.77944 11.7543L7.77944 11.6543L7.77944 4.20849C7.77944 2.461 6.3774 1.04257 4.64567 1.04257C2.91395 1.04257 1.5119 2.461 1.5119 4.20849L1.5119 11.6543L1.5119 11.7543L1.6119 11.7543L7.67944 11.7543ZM6.71265 10.6783L2.57869 10.6783L2.57869 4.20849C2.57869 3.05325 3.5051 2.11855 4.64567 2.11855C5.78624 2.11855 6.71265 3.05325 6.71265 4.20849L6.71265 10.6783Z" fill="#264EEE" stroke="#264EEE" stroke-width="0.2"/>
</svg>
