<svg width="17" height="20" viewBox="0 0 17 20" fill="none" xmlns="http://www.w3.org/2000/svg">
<mask id="path-1-outside-1_7_376" maskUnits="userSpaceOnUse" x="-0.195312" y="0.183838" width="17" height="20" fill="black">
<rect fill="white" x="-0.195312" y="0.183838" width="17" height="20"/>
<path fill-rule="evenodd" clip-rule="evenodd" d="M8.56895 1.30564L8.36435 1.18384L8.15974 1.30564L1.00008 5.56766L0.804688 5.68398V5.91137V14.4354V14.6628L1.00008 14.7791L8.15974 19.0412L8.36435 19.163L8.56895 19.0412L15.7286 14.7791L15.924 14.6628V14.4354V5.91137V5.68398L15.7286 5.56766L8.56895 1.30564ZM1.60469 13.631V6.7151L7.56698 10.1731L1.60469 13.631ZM1.90062 14.3842L7.96436 17.9938V10.8674L1.90062 14.3842ZM9.16154 10.1731L15.124 13.6311V6.715L9.16154 10.1731ZM14.8274 5.96221L8.76436 2.35297V9.47861L14.8274 5.96221ZM7.96436 9.47872L1.90119 5.96226L7.96436 2.35296V9.47872ZM8.76436 17.9938V10.8675L14.828 14.3842L8.76436 17.9938Z"/>
</mask>
<path fill-rule="evenodd" clip-rule="evenodd" d="M8.56895 1.30564L8.36435 1.18384L8.15974 1.30564L1.00008 5.56766L0.804688 5.68398V5.91137V14.4354V14.6628L1.00008 14.7791L8.15974 19.0412L8.36435 19.163L8.56895 19.0412L15.7286 14.7791L15.924 14.6628V14.4354V5.91137V5.68398L15.7286 5.56766L8.56895 1.30564ZM1.60469 13.631V6.7151L7.56698 10.1731L1.60469 13.631ZM1.90062 14.3842L7.96436 17.9938V10.8674L1.90062 14.3842ZM9.16154 10.1731L15.124 13.6311V6.715L9.16154 10.1731ZM14.8274 5.96221L8.76436 2.35297V9.47861L14.8274 5.96221ZM7.96436 9.47872L1.90119 5.96226L7.96436 2.35296V9.47872ZM8.76436 17.9938V10.8675L14.828 14.3842L8.76436 17.9938Z" fill="#264EEE"/>
<path d="M8.36435 1.18384L8.46665 1.01198L8.36435 0.951084L8.26205 1.01198L8.36435 1.18384ZM8.56895 1.30564L8.46665 1.47749L8.46665 1.47749L8.56895 1.30564ZM8.15974 1.30564L8.05744 1.13378L8.05744 1.13378L8.15974 1.30564ZM1.00008 5.56766L1.10239 5.73952L1.00008 5.56766ZM0.804688 5.68398L0.702385 5.51212L0.604687 5.57028V5.68398H0.804688ZM0.804688 14.6628H0.604687V14.7765L0.702385 14.8347L0.804688 14.6628ZM1.00008 14.7791L1.10239 14.6073L1.10238 14.6073L1.00008 14.7791ZM8.15974 19.0412L8.05744 19.213L8.05744 19.213L8.15974 19.0412ZM8.36435 19.163L8.26205 19.3348L8.36435 19.3957L8.46665 19.3348L8.36435 19.163ZM8.56895 19.0412L8.67125 19.213L8.67125 19.213L8.56895 19.0412ZM15.7286 14.7791L15.6263 14.6073L15.6263 14.6073L15.7286 14.7791ZM15.924 14.6628L16.0263 14.8347L16.124 14.7765V14.6628H15.924ZM15.924 5.68398H16.124V5.57028L16.0263 5.51212L15.924 5.68398ZM15.7286 5.56766L15.8309 5.39581L15.8309 5.39581L15.7286 5.56766ZM1.60469 6.7151L1.70503 6.54209L1.40469 6.3679V6.7151H1.60469ZM1.60469 13.631H1.40469V13.9782L1.70503 13.804L1.60469 13.631ZM7.56698 10.1731L7.66732 10.3461L7.96562 10.1731L7.66732 10L7.56698 10.1731ZM1.90062 14.3842L1.80028 14.2112L1.50585 14.3819L1.79831 14.556L1.90062 14.3842ZM7.96436 17.9938L7.86205 18.1657L8.16436 18.3456V17.9938H7.96436ZM7.96436 10.8674H8.16436V10.5202L7.86402 10.6944L7.96436 10.8674ZM15.124 13.6311L15.0237 13.8041L15.324 13.9783V13.6311H15.124ZM9.16154 10.1731L9.0612 10L8.7629 10.1731L9.0612 10.3461L9.16154 10.1731ZM15.124 6.715H15.324V6.3678L15.0237 6.54199L15.124 6.715ZM8.76436 2.35297L8.86666 2.18112L8.56436 2.00116V2.35297H8.76436ZM14.8274 5.96221L14.9278 6.13522L15.2222 5.96446L14.9297 5.79035L14.8274 5.96221ZM8.76436 9.47861H8.56436V9.82581L8.8647 9.65162L8.76436 9.47861ZM1.90119 5.96226L1.79889 5.79041L1.50642 5.96451L1.80085 6.13527L1.90119 5.96226ZM7.96436 9.47872L7.86402 9.65173L8.16436 9.82592V9.47872H7.96436ZM7.96436 2.35296H8.16436V2.00115L7.86205 2.18111L7.96436 2.35296ZM8.76436 10.8675L8.8647 10.6945L8.56436 10.5203V10.8675H8.76436ZM8.76436 17.9938H8.56436V18.3456L8.86666 18.1657L8.76436 17.9938ZM14.828 14.3842L14.9303 14.5561L15.2228 14.382L14.9283 14.2112L14.828 14.3842ZM8.26205 1.35569L8.46665 1.47749L8.67126 1.13378L8.46665 1.01198L8.26205 1.35569ZM8.26205 1.47749L8.46665 1.35569L8.26205 1.01198L8.05744 1.13378L8.26205 1.47749ZM1.10239 5.73952L8.26205 1.47749L8.05744 1.13378L0.89778 5.39581L1.10239 5.73952ZM0.90699 5.85583L1.10239 5.73952L0.89778 5.39581L0.702385 5.51212L0.90699 5.85583ZM1.00469 5.91137V5.68398H0.604687V5.91137H1.00469ZM1.00469 14.4354V5.91137H0.604687V14.4354H1.00469ZM1.00469 14.6628V14.4354H0.604687V14.6628H1.00469ZM1.10238 14.6073L0.90699 14.491L0.702385 14.8347L0.89778 14.951L1.10238 14.6073ZM8.26205 18.8693L1.10239 14.6073L0.89778 14.951L8.05744 19.213L8.26205 18.8693ZM8.46665 18.9911L8.26204 18.8693L8.05744 19.213L8.26205 19.3348L8.46665 18.9911ZM8.46665 18.8693L8.26205 18.9911L8.46665 19.3348L8.67125 19.213L8.46665 18.8693ZM15.6263 14.6073L8.46665 18.8693L8.67125 19.213L15.8309 14.951L15.6263 14.6073ZM15.8217 14.491L15.6263 14.6073L15.8309 14.951L16.0263 14.8347L15.8217 14.491ZM15.724 14.4354V14.6628H16.124V14.4354H15.724ZM15.724 5.91137V14.4354H16.124V5.91137H15.724ZM15.724 5.68398V5.91137H16.124V5.68398H15.724ZM15.6263 5.73952L15.8217 5.85583L16.0263 5.51212L15.8309 5.39581L15.6263 5.73952ZM8.46665 1.47749L15.6263 5.73952L15.8309 5.39581L8.67125 1.13378L8.46665 1.47749ZM1.40469 6.7151V13.631H1.80469V6.7151H1.40469ZM7.66732 10L1.70503 6.54209L1.50435 6.88811L7.46664 10.3461L7.66732 10ZM1.70503 13.804L7.66732 10.3461L7.46664 10L1.50435 13.458L1.70503 13.804ZM1.79831 14.556L7.86205 18.1657L8.06666 17.822L2.00292 14.2123L1.79831 14.556ZM8.16436 17.9938V10.8674H7.76436V17.9938H8.16436ZM7.86402 10.6944L1.80028 14.2112L2.00096 14.5572L8.0647 11.0404L7.86402 10.6944ZM15.2243 13.4581L9.26188 10L9.0612 10.3461L15.0237 13.8041L15.2243 13.4581ZM14.924 6.715V13.6311H15.324V6.715H14.924ZM15.0237 6.54199L9.0612 10L9.26188 10.3461L15.2243 6.88801L15.0237 6.54199ZM8.66205 2.52483L14.7251 6.13407L14.9297 5.79035L8.86666 2.18112L8.66205 2.52483ZM8.96436 9.47861V2.35297H8.56436V9.47861H8.96436ZM8.8647 9.65162L14.9278 6.13522L14.7271 5.7892L8.66402 9.3056L8.8647 9.65162ZM1.80085 6.13527L7.86402 9.65173L8.0647 9.30571L2.00153 5.78925L1.80085 6.13527ZM7.86205 2.18111L1.79889 5.79041L2.0035 6.13412L8.06666 2.52482L7.86205 2.18111ZM8.16436 9.47872V2.35296H7.76436V9.47872H8.16436ZM8.56436 10.8675V17.9938H8.96436V10.8675H8.56436ZM14.9283 14.2112L8.8647 10.6945L8.66402 11.0405L14.7277 14.5572L14.9283 14.2112ZM8.86666 18.1657L14.9303 14.5561L14.7257 14.2124L8.66205 17.822L8.86666 18.1657Z" fill="#264EEE" mask="url(#path-1-outside-1_7_376)"/>
</svg>
