<svg width="99" height="43" viewBox="0 0 99 43" fill="none" xmlns="http://www.w3.org/2000/svg">
<path d="M20.5763 9.89988C21.9774 9.88116 23.1289 11.0354 23.1488 12.4794V15.0592C23.1292 16.503 21.9781 17.6576 20.5769 17.639H17.9614C16.5765 17.6438 15.4511 18.7919 15.4327 20.2188L15.4322 20.2165V22.7962C15.452 24.2402 16.603 25.3947 18.0042 25.3761H20.5763C21.9774 25.3575 23.1286 26.512 23.1483 27.9559V30.5394C23.1286 31.9833 21.9774 33.1379 20.5763 33.1194H18.0042C16.603 33.1379 15.452 31.9833 15.4322 30.5394V27.9493C15.408 26.5088 14.2582 25.3596 12.8602 25.3785H10.2881C8.88687 25.3972 7.73583 24.2426 7.7161 22.7987V20.2188C7.73678 18.7756 8.88755 17.6222 10.2881 17.6408H12.8602C14.2582 17.6597 15.408 16.5105 15.4322 15.07V12.48C15.452 11.036 16.603 9.88149 18.0042 9.89988H20.5763ZM5.14407 25.1662C6.56443 25.1667 7.71577 26.353 7.7161 27.8166V30.467C7.71577 31.9307 6.56443 33.1171 5.14407 33.1174H2.57203C1.1518 33.1168 0.00064032 31.9306 0 30.467V27.8166C0.000320298 26.353 1.15167 25.1667 2.57203 25.1662H5.14407ZM85.3905 24.9272C85.6653 24.9209 85.9304 25.0305 86.1246 25.2307C86.3189 25.4308 86.4253 25.7042 86.4193 25.9871C86.4193 26.5726 85.9587 27.0472 85.3905 27.0472C84.8224 27.0472 84.3619 26.5726 84.3619 25.9871C84.3619 25.4017 84.8224 24.9272 85.3905 24.9272ZM66.806 19.8249C67.5905 20.6362 68.0025 21.7533 67.9393 22.8967V26.811H66.2364V25.25C65.7804 26.3767 64.6855 27.0858 63.5025 27.0203C62.4533 27.0359 61.4448 26.6032 60.7163 25.825C59.9879 25.0468 59.6046 23.9926 59.6574 22.9129C59.6078 21.7606 60.0322 20.6404 60.8267 19.8278C61.621 19.0152 62.7114 18.5861 63.8292 18.6459C64.9389 18.5848 66.0215 19.0137 66.806 19.8249ZM42.7577 19.6736C43.9654 20.8903 44.338 22.7393 43.7004 24.351C43.0628 25.9626 41.5419 27.0161 39.8529 27.0161C38.7519 27.071 37.6784 26.651 36.8904 25.857C36.1515 25.1125 35.7259 24.1023 35.6993 23.0433V22.8309C35.6612 21.091 36.6493 19.5004 38.1985 18.8074C39.7478 18.1144 41.55 18.4567 42.7577 19.6736ZM97.7496 19.6733C98.9572 20.8899 99.33 22.7389 98.6926 24.3505C98.0552 25.9622 96.5345 27.016 94.8456 27.0161C93.7445 27.071 92.671 26.651 91.8829 25.857C91.1439 25.1125 90.7182 24.1023 90.6913 23.0433V22.8309C90.6533 21.091 91.6413 19.5006 93.1905 18.8074C94.7397 18.1144 96.5419 18.4567 97.7496 19.6733ZM56.3967 16.2078V18.8551H58.8991V20.5938H56.3967V23.7505C56.3967 24.8135 56.9265 25.232 57.6929 25.232C58.1635 25.232 58.5156 25.1819 58.905 25.1789V26.8487C58.5096 26.953 58.1038 27.0101 57.6958 27.0185C55.8183 27.0185 54.5372 25.956 54.5372 23.7481V20.5913H53.2433V18.8527H54.5372V16.2078H56.3967ZM80.5732 16.2078V18.8551H83.0756V20.5938H80.5732V23.7505C80.5732 24.8135 81.1029 25.232 81.8693 25.232C82.3398 25.232 82.6926 25.1819 83.0808 25.1789V26.8487C82.6856 26.953 82.2801 27.0101 81.8722 27.0185C79.9948 27.0185 78.7137 25.956 78.7137 23.7481V20.5913H77.4198V18.8527H78.7137V16.2078H80.5732ZM71.1518 16.2078V21.9855H71.4605L74.213 18.8557H76.5865L72.9626 22.7544L76.7258 26.8146H74.3053L71.5939 23.7272H71.1518V26.8146H69.2952V16.2078H71.1518ZM48.8477 18.6459C51.1343 18.6459 52.6672 19.9976 52.6672 22.672V26.8093H50.8053V22.672C50.8053 21.1586 50.0232 20.4352 48.8477 20.4352C47.6722 20.4352 46.8907 21.1586 46.8907 22.672V26.8093H45.0282V22.672C45.0282 20.0161 46.5612 18.6459 48.8477 18.6459ZM30.1745 16.2078V21.9825H30.4832L33.2351 18.8527H35.6093L31.9883 22.7515L35.7508 26.8093H33.3308L30.6196 23.7219H30.1745V26.8093H28.3179V16.2078H30.1745ZM89.3951 18.8551V26.8063H87.5431V18.8551H89.3951ZM63.7678 20.545C62.5179 20.5667 61.5192 21.6238 61.5317 22.9119C61.5442 24.2 62.5633 25.2363 63.8135 25.232C64.4326 25.256 65.0325 25.0083 65.4646 24.5506C65.8965 24.093 66.12 23.468 66.0798 22.8309C66.0503 21.5455 65.0178 20.5234 63.7678 20.545ZM39.8053 20.5486C38.5572 20.5714 37.5609 21.6276 37.5741 22.9138C37.5873 24.2 38.6052 25.2342 39.8534 25.2296C40.4716 25.2525 41.0703 25.0049 41.5015 24.5479C41.9327 24.0908 42.156 23.467 42.1162 22.8309C42.0853 21.5451 41.0532 20.526 39.8053 20.5486ZM94.7998 20.5475C93.5513 20.5701 92.5546 21.6268 92.5679 22.9135C92.5812 24.2 93.5997 25.2345 94.8485 25.2296C95.4667 25.2525 96.0653 25.0049 96.4965 24.5479C96.9276 24.0908 97.1509 23.467 97.1112 22.8309C97.0806 21.5446 96.0483 20.5248 94.7998 20.5475ZM88.4767 15.9955C88.7513 15.989 89.0167 16.0987 89.211 16.2988C89.4053 16.499 89.5115 16.7724 89.5054 17.0554C89.5054 17.641 89.0447 18.1155 88.4767 18.1155C87.9086 18.1155 87.4479 17.641 87.4479 17.0554C87.4479 16.4701 87.9086 15.9955 88.4767 15.9955Z" fill="#1E1E1E"/>
</svg>
