<svg width="88" height="36" viewBox="0 0 88 36" fill="none" xmlns="http://www.w3.org/2000/svg">
<g clip-path="url(#clip0_527_12739)">
<mask id="mask0_527_12739" style="mask-type:luminance" maskUnits="userSpaceOnUse" x="0" y="0" width="88" height="36">
<path d="M88 0H0V36H88V0Z" fill="white"/>
</mask>
<g mask="url(#mask0_527_12739)">
<path d="M42.8228 10.4399C45.718 10.4399 48.0084 12.143 48.7212 14.4275L45.2211 15.3414C44.8538 14.0538 43.6867 13.4514 42.6068 13.4514C41.5265 13.4514 40.8997 13.9706 40.8997 14.5523C40.8997 15.5075 42.4123 15.8608 44.2488 16.5045C46.4959 17.2938 48.8511 18.519 48.8511 21.0118C48.8511 23.6699 46.4741 25.5599 42.9526 25.5599C39.798 25.5599 37.5509 23.8775 36.557 21.1569L40.0357 20.2639C40.4246 21.3645 41.5051 22.4654 43.1036 22.4654C44.4002 22.4654 45.0052 21.8836 45.0052 21.1778C45.0052 20.0145 43.2335 19.7238 41.0728 18.9345C39.2577 18.2699 37.1619 17.3145 37.1619 14.7599C37.1619 12.496 39.5385 10.4399 42.8228 10.4399ZM61.7065 10.4399C64.6015 10.4399 66.8919 12.143 67.6049 14.4275L64.1048 15.3414C63.7372 14.0538 62.5704 13.4514 61.4901 13.4514C60.4098 13.4514 59.7834 13.9706 59.7834 14.5523C59.7834 15.5075 61.2959 15.8608 63.1325 16.5045C65.3796 17.2938 67.7348 18.519 67.7348 21.0118C67.7348 23.6699 65.3578 25.5599 61.836 25.5599C58.6817 25.5599 56.4343 23.8775 55.4404 21.1569L58.9191 20.2639C59.3083 21.3645 60.3884 22.4654 61.9873 22.4654C63.2839 22.4654 63.8885 21.8836 63.8885 21.1778C63.8885 20.0145 62.1169 19.7238 59.9565 18.9345C58.1414 18.2699 56.0456 17.3145 56.0456 14.7599C56.0456 12.496 58.4222 10.4399 61.7065 10.4399ZM88 23.1582V25.4426H74.82V23.1582H88ZM3.63001 10.7308V22.0084H10.7816V25.269H0V10.7308H3.63001ZM29.5139 10.7308V13.9914H22.1459V16.3799H27.9149V19.433H22.1459V22.0084H29.6434V25.269H18.5159V10.7308H29.5139Z" fill="#1E1E1E"/>
</g>
</g>
<defs>
<clipPath id="clip0_527_12739">
<rect width="88" height="36" fill="white"/>
</clipPath>
</defs>
</svg>
