<svg width="78" height="33" viewBox="0 0 78 33" fill="none" xmlns="http://www.w3.org/2000/svg">
<path fill-rule="evenodd" clip-rule="evenodd" d="M44.85 8.25978V24.7598H0V8.25978H44.85ZM64.5013 8.56423C65.7647 9.05003 66.5344 10.0492 66.8108 11.5031C66.9046 11.9968 66.9284 12.513 66.9363 13.02C66.954 14.1737 66.9419 15.3279 66.9419 16.4819C66.9419 17.7844 66.9638 19.0876 66.9357 20.3894C66.9083 21.656 66.5799 22.804 65.7122 23.6895C65.177 24.2353 64.5401 24.5676 63.8337 24.6624C63.2143 24.7456 62.5773 24.7951 61.9589 24.7295C60.1905 24.5421 59.0004 23.5194 58.6394 21.4513C58.5355 20.8562 58.5163 20.236 58.5127 19.6269C58.4986 17.3419 58.4926 15.0564 58.514 12.7715C58.5225 11.8406 58.702 10.9332 59.163 10.1389C59.7437 9.13819 60.602 8.56515 61.6327 8.37361C62.5924 8.1952 63.5637 8.20369 64.5013 8.56423ZM55.7626 8.25978C56.0275 8.2587 56.1313 8.32776 56.1237 8.62819C56.1049 9.36809 56.109 10.1091 56.1221 10.8493C56.1269 11.1106 56.0393 11.1871 55.7986 11.1854C54.8646 11.1793 53.9304 11.1794 52.9963 11.18L51.5952 11.181H51.196C51.157 12.4678 51.1185 13.7373 51.0792 15.0349C51.781 14.1241 52.7134 13.8668 53.755 13.9623C54.8729 14.0645 55.7711 14.7393 56.1922 15.896C56.4664 16.6492 56.5305 17.4266 56.5348 18.2154C56.54 19.1839 56.5821 20.1585 56.4988 21.1198C56.3324 23.0402 55.2992 24.3397 53.4329 24.6475C52.3881 24.8198 51.3447 24.8242 50.3305 24.4434C49.1512 24.0005 48.4678 23.0989 48.2424 21.8173C48.1541 21.315 48.1499 20.7964 48.1029 20.2855C48.0838 20.0768 48.1586 19.9997 48.3617 20.0017C49.2375 20.0104 50.1132 20.0093 50.9888 20.0024C51.1852 20.0008 51.2587 20.0712 51.2615 20.2838C51.266 20.6023 51.275 20.9262 51.3323 21.2376C51.4141 21.6836 51.8101 21.9664 52.2461 21.9397C52.7106 21.9113 52.9785 21.7003 53.0217 21.1985C53.0819 20.5006 53.0882 19.7962 53.0916 19.0945C53.0938 18.6013 53.0854 18.1032 53.0231 17.6156C52.9433 16.99 52.4886 16.5829 51.8598 16.5846C51.1799 16.5864 50.61 16.7679 50.1765 17.3441C50.1379 17.3955 50.0458 17.4249 49.9781 17.4257C49.4546 17.4323 48.931 17.4294 48.3615 17.4294C48.4345 15.391 48.5072 13.3641 48.5802 11.3281L48.69 8.26493H49.2934C51.4498 8.26493 53.6063 8.26897 55.7626 8.25978ZM75.4966 8.55129C76.8288 9.03201 77.5906 10.0735 77.8626 11.5774C77.9501 12.0602 77.9844 12.5623 77.9868 13.056C77.9989 15.4964 78.0106 17.9373 77.9832 20.3776C77.9725 21.3411 77.7408 22.2608 77.2317 23.0665C76.6793 23.9411 75.8942 24.4328 74.9837 24.6171C73.8966 24.8371 72.8007 24.8371 71.7453 24.3705C70.5644 23.8484 69.9167 22.8307 69.6879 21.4768C69.5858 20.872 69.572 20.2439 69.5604 19.6254C69.5473 18.9338 69.5492 18.2419 69.5521 17.5499L69.555 16.5121V12.8853C69.5553 11.6936 69.8199 10.5864 70.5081 9.66423C70.9874 9.02196 71.6401 8.62371 72.3685 8.44439C73.4139 8.18709 74.461 8.17754 75.4966 8.55129ZM2.02834 9.55861C1.53101 9.55812 1.38626 9.69461 1.38845 10.1991C1.40709 14.4073 1.39878 18.6157 1.40018 22.824C1.40018 22.9353 1.40706 23.0466 1.4143 23.1621L1.42463 23.3391H43.4299V22.7681C43.4299 18.5771 43.4212 14.3862 43.4413 10.1953C43.4437 9.68406 43.2931 9.55845 42.8008 9.55878C29.2099 9.57148 15.6191 9.57157 2.02834 9.55861ZM61.9013 11.5375C61.7634 11.8194 61.6969 12.179 61.6943 12.5047C61.6758 14.9013 61.678 17.2982 61.6825 19.6951C61.6833 20.1354 61.6801 20.5853 61.7557 21.0137C61.9084 21.8792 62.4193 22.1049 63.1321 21.8593C63.6415 21.6838 63.7479 21.139 63.7561 20.624C63.7706 19.7112 63.7691 18.7981 63.7664 17.885L63.7635 16.5154C63.7696 15.3284 63.7796 14.141 63.7638 12.9543C63.7587 12.5653 63.7111 12.1714 63.6379 11.7907C63.564 11.4069 63.3133 11.1638 62.9707 11.1074C62.5559 11.0392 62.1246 11.0809 61.9013 11.5375ZM73.5807 11.0892C73.2655 11.1062 72.9468 11.3669 72.8615 11.7516C72.7704 12.1622 72.6845 12.5875 72.6813 13.0071C72.6642 15.3226 72.6636 17.6384 72.6815 19.9539C72.685 20.3958 72.7751 20.8424 72.8652 21.2764C72.9362 21.6183 73.282 21.8876 73.5787 21.9068C73.9973 21.9341 74.4153 21.9171 74.6021 21.4054C74.7133 21.1011 74.7983 20.7617 74.8038 20.4361C74.8262 19.1134 74.813 17.7898 74.813 16.4666C74.813 15.1661 74.824 13.8656 74.8049 12.5655C74.8004 12.2616 74.7184 11.95 74.6282 11.6589C74.4536 11.0949 74.023 11.0653 73.5807 11.0892ZM24.05 11.5598V13.2449H22.6909V13.855C22.6909 16.1981 22.6827 18.5414 22.6984 20.8844C22.7011 21.2993 22.6017 21.4626 22.1606 21.4598C20.9457 21.4518 20.872 21.4678 20.8675 20.3631L20.8673 13.2545H19.5V11.5598H24.05ZM28.9134 11.5598C29.2876 11.5571 29.2456 11.8355 29.2457 12.0858C29.2461 14.3769 29.2614 16.6681 29.2318 18.9587C29.2264 19.3796 29.1147 19.8425 28.9191 20.2087C28.3423 21.2893 27.4219 21.5796 26.6334 21.4184C25.449 21.1765 24.7726 20.2997 24.7401 19.1893C24.6787 17.0908 24.7035 14.9895 24.7134 12.8661L24.7168 11.5892H26.4668V12.1938C26.4669 14.449 26.4713 16.7042 26.4628 18.9595C26.4613 19.3518 26.5361 19.632 26.9811 19.6323C27.4252 19.6328 27.5026 19.3546 27.5011 18.9611C27.4953 17.4576 27.4954 15.9543 27.4961 14.4507L27.497 12.1955V11.5605C27.9977 11.5605 28.4555 11.5633 28.9134 11.5598ZM7.8 11.5598V13.2603H5.21147V15.4561H6.8349V17.1951H5.17729V21.4598H3.25V11.5598H7.8ZM16.8649 11.6012C17.6948 11.6808 18.5569 12.6909 18.5987 13.6209C18.6381 14.4962 18.5794 15.3815 18.4977 16.2551C18.4685 16.5683 18.3102 16.936 18.097 17.145C17.7792 17.4562 17.8384 17.7247 17.9429 18.0888C18.2571 19.1829 18.5387 20.2878 18.85 21.4524C18.3378 21.4524 17.8836 21.4771 17.4345 21.4361C17.3114 21.4249 17.1376 21.2369 17.1 21.0954C16.7481 19.7706 16.4207 18.4385 16.0865 17.1084C16.0572 16.991 16.0304 16.873 15.9884 16.6952C16.8176 16.4804 16.9884 15.8484 16.9972 15.1108L16.9969 14.2995C16.9904 13.4872 16.796 13.2798 15.99 13.3424L15.8861 13.3517V21.4251H14.3V11.5833C15.1582 11.5833 16.0176 11.5199 16.8649 11.6012ZM37.5655 11.5599C38.6228 11.572 39.6803 11.5683 40.7732 11.5665L41.6 11.5656V13.2908H39.1338V15.4523H40.7459V17.1988H39.146V19.597H41.5964V21.4523H39.4022C38.801 21.4523 38.199 21.4338 37.599 21.4584C37.1705 21.476 37.0485 21.3211 37.05 20.9501C37.062 17.9812 37.0609 15.0122 37.051 12.0433C37.0499 11.6992 37.1646 11.5554 37.5655 11.5599ZM31.8874 11.5819C31.9886 11.5902 32.1228 11.7838 32.1627 11.9208C32.5492 13.2483 32.9184 14.582 33.2947 15.9131C33.3134 15.9791 33.3451 16.0406 33.4066 16.1812L33.44 16.2585V11.6037H35.069C35.0771 11.78 35.0908 11.9381 35.0908 12.0961C35.0922 15.0085 35.0839 17.9208 35.1 20.833C35.1026 21.2948 35.0022 21.4677 34.5595 21.4595C33.3206 21.4367 33.318 21.4587 32.9549 20.1416C32.6858 19.1663 32.4237 18.1883 32.1586 17.2113L32.1075 17.2198L32.0564 17.2283V21.4195H30.55V11.5657C30.9927 11.5657 31.442 11.5447 31.8874 11.5819ZM12.7767 12.9835C12.8977 13.3542 12.9657 13.7548 12.9813 14.145C13.0124 14.9189 12.9905 15.6952 12.9905 16.4705C12.9905 17.3516 13.0155 18.2336 12.9845 19.1135C12.9401 20.376 12.2075 21.235 10.9183 21.4424C10.1316 21.5689 8.83211 21.0034 8.53179 19.7754C8.49124 19.6096 8.46518 19.4354 8.46468 19.2649C8.45999 17.4147 8.4878 15.5639 8.45026 13.7144C8.43267 12.8451 9.30186 11.8031 10.1636 11.6144C11.289 11.3679 12.449 11.979 12.7767 12.9835ZM10.7756 13.3003L10.6912 13.3005C10.2775 13.3239 10.1416 13.5822 10.1448 13.9676C10.1518 14.813 10.147 15.6585 10.1469 16.5039C10.1469 17.3319 10.1448 18.1598 10.1481 18.9875C10.1493 19.3197 10.1855 19.6236 10.6237 19.6605C11.1062 19.701 11.293 19.4105 11.2971 19.0105C11.3146 17.3197 11.318 15.6284 11.293 13.9379C11.2889 13.652 11.1707 13.3643 10.8526 13.3088L10.7756 13.3003Z" fill="#1E1E1E"/>
</svg>
