<svg width="18" height="19" viewBox="0 0 18 19" fill="none" xmlns="http://www.w3.org/2000/svg">
<mask id="path-1-outside-1_31_1118" maskUnits="userSpaceOnUse" x="-0.807129" y="0.142883" width="19" height="19" fill="black">
<rect fill="white" x="-0.807129" y="0.142883" width="19" height="19"/>
<path fill-rule="evenodd" clip-rule="evenodd" d="M12.1383 1.61136C12.1383 1.4873 12.189 1.36832 12.2791 1.28059C12.3691 1.19286 12.4913 1.14358 12.6188 1.14358H14.4878C14.8231 1.14308 15.0958 1.14257 15.3474 1.22305C15.569 1.29347 15.772 1.40916 15.944 1.56257C16.1398 1.73711 16.2726 1.96849 16.4348 2.25167L16.4658 2.30499L17.3843 3.9035C17.4156 3.9572 17.4357 4.01639 17.4434 4.07768C17.4511 4.13896 17.4463 4.20113 17.4293 4.2606C17.4122 4.32007 17.3833 4.37567 17.3441 4.4242C17.3049 4.47273 17.2562 4.51324 17.2008 4.54338C17.1455 4.57352 17.0846 4.59271 17.0216 4.59984C16.9586 4.60698 16.8948 4.60191 16.8338 4.58493C16.7728 4.56795 16.7159 4.5394 16.6663 4.50093C16.6167 4.46245 16.5755 4.4148 16.5448 4.36072L15.6263 2.76221C15.4171 2.39855 15.3613 2.31253 15.2947 2.25368C15.2236 2.19022 15.1394 2.14222 15.0478 2.11285L15.1976 1.6682L15.0478 2.11335C14.961 2.08568 14.8551 2.08015 14.4253 2.08015H12.6188C12.5556 2.08009 12.4931 2.06791 12.4348 2.04431C12.3764 2.02072 12.3234 1.98617 12.2788 1.94264C12.2342 1.89911 12.1989 1.84745 12.1747 1.79061C12.1506 1.73377 12.1383 1.67286 12.1383 1.61136ZM12.1383 18.0024C12.1382 17.9409 12.1505 17.8799 12.1746 17.8231C12.1987 17.7662 12.2341 17.7145 12.2787 17.671C12.3233 17.6274 12.3763 17.5929 12.4347 17.5693C12.493 17.5457 12.5556 17.5336 12.6188 17.5336H14.4253C14.8551 17.5336 14.961 17.5286 15.0478 17.5004C15.1395 17.4714 15.2237 17.4236 15.2947 17.3601C15.3613 17.3012 15.4171 17.2152 15.6263 16.8521L16.5448 15.253C16.6072 15.1447 16.7112 15.0648 16.834 15.0311C16.8948 15.0144 16.9584 15.0095 17.0211 15.0167C17.0838 15.024 17.1445 15.0432 17.1996 15.0732C17.2547 15.1033 17.3032 15.1436 17.3424 15.1919C17.3815 15.2402 17.4104 15.2955 17.4276 15.3548C17.4447 15.414 17.4497 15.4759 17.4423 15.5369C17.4349 15.598 17.4152 15.6571 17.3843 15.7108L16.4653 17.3088L16.4348 17.3621C16.2726 17.6453 16.1398 17.8767 15.944 18.0512C15.7721 18.2043 15.5688 18.32 15.3474 18.3907C15.0958 18.4712 14.8231 18.4712 14.4878 18.4707H12.6188C12.4913 18.4706 12.3691 18.4212 12.279 18.3334C12.1889 18.2455 12.1383 18.1265 12.1383 18.0024ZM5.5012 18.0014C5.50127 18.0629 5.48888 18.1239 5.46474 18.1808C5.4406 18.2376 5.40518 18.2893 5.36052 18.3328C5.31585 18.3764 5.26281 18.4109 5.20442 18.4345C5.14604 18.4581 5.08346 18.4702 5.02026 18.4702H3.15124C2.81597 18.4702 2.54373 18.4702 2.29163 18.3897C2.0703 18.3192 1.86691 18.2036 1.69497 18.0507C1.49918 17.8767 1.36642 17.6448 1.20421 17.3616L1.17322 17.3088L0.254721 15.7103C0.223854 15.6566 0.204146 15.5975 0.196722 15.5364C0.189298 15.4754 0.194304 15.4134 0.211453 15.3542C0.228602 15.295 0.257559 15.2397 0.29667 15.1914C0.335782 15.1431 0.384282 15.1028 0.439402 15.0727C0.494521 15.0427 0.555181 15.0235 0.617917 15.0162C0.680653 15.009 0.744237 15.0139 0.805039 15.0306C0.86584 15.0473 0.922669 15.0755 0.972279 15.1136C1.02189 15.1516 1.06331 15.1989 1.09418 15.2525L2.01319 16.851C2.22189 17.2147 2.2782 17.3007 2.34432 17.3596C2.4151 17.423 2.4993 17.4707 2.59125 17.5004C2.67804 17.5281 2.78394 17.5336 3.21426 17.5336H5.01974C5.14716 17.5336 5.26936 17.5829 5.35945 17.6706C5.44955 17.7583 5.50017 17.8773 5.50017 18.0014H5.5012ZM5.5012 1.61136C5.50106 1.73547 5.45033 1.85445 5.36015 1.94217C5.26997 2.02988 5.14772 2.07915 5.02026 2.07915H3.21426C2.78394 2.07915 2.67804 2.08518 2.59125 2.11285C2.49966 2.14205 2.41549 2.18989 2.34432 2.25318C2.2782 2.31203 2.22189 2.39804 2.01319 2.76171L1.09366 4.36022C1.03132 4.46861 0.927317 4.54845 0.804522 4.58217C0.681728 4.61589 0.550204 4.60074 0.438885 4.54004C0.327566 4.47934 0.24557 4.37807 0.210936 4.25851C0.176302 4.13895 0.191866 4.01089 0.254205 3.9025L1.17322 2.30449L1.2037 2.25117C1.3659 1.96798 1.49867 1.73661 1.69446 1.56207C1.86665 1.40883 2.07041 1.29309 2.29215 1.22255C2.54424 1.14207 2.81649 1.14207 3.15175 1.14308H5.02077C5.14819 1.14308 5.27039 1.19236 5.36049 1.28009C5.45058 1.36781 5.5012 1.4868 5.5012 1.61086V1.61136Z"/>
</mask>
<path fill-rule="evenodd" clip-rule="evenodd" d="M12.1383 1.61136C12.1383 1.4873 12.189 1.36832 12.2791 1.28059C12.3691 1.19286 12.4913 1.14358 12.6188 1.14358H14.4878C14.8231 1.14308 15.0958 1.14257 15.3474 1.22305C15.569 1.29347 15.772 1.40916 15.944 1.56257C16.1398 1.73711 16.2726 1.96849 16.4348 2.25167L16.4658 2.30499L17.3843 3.9035C17.4156 3.9572 17.4357 4.01639 17.4434 4.07768C17.4511 4.13896 17.4463 4.20113 17.4293 4.2606C17.4122 4.32007 17.3833 4.37567 17.3441 4.4242C17.3049 4.47273 17.2562 4.51324 17.2008 4.54338C17.1455 4.57352 17.0846 4.59271 17.0216 4.59984C16.9586 4.60698 16.8948 4.60191 16.8338 4.58493C16.7728 4.56795 16.7159 4.5394 16.6663 4.50093C16.6167 4.46245 16.5755 4.4148 16.5448 4.36072L15.6263 2.76221C15.4171 2.39855 15.3613 2.31253 15.2947 2.25368C15.2236 2.19022 15.1394 2.14222 15.0478 2.11285L15.1976 1.6682L15.0478 2.11335C14.961 2.08568 14.8551 2.08015 14.4253 2.08015H12.6188C12.5556 2.08009 12.4931 2.06791 12.4348 2.04431C12.3764 2.02072 12.3234 1.98617 12.2788 1.94264C12.2342 1.89911 12.1989 1.84745 12.1747 1.79061C12.1506 1.73377 12.1383 1.67286 12.1383 1.61136ZM12.1383 18.0024C12.1382 17.9409 12.1505 17.8799 12.1746 17.8231C12.1987 17.7662 12.2341 17.7145 12.2787 17.671C12.3233 17.6274 12.3763 17.5929 12.4347 17.5693C12.493 17.5457 12.5556 17.5336 12.6188 17.5336H14.4253C14.8551 17.5336 14.961 17.5286 15.0478 17.5004C15.1395 17.4714 15.2237 17.4236 15.2947 17.3601C15.3613 17.3012 15.4171 17.2152 15.6263 16.8521L16.5448 15.253C16.6072 15.1447 16.7112 15.0648 16.834 15.0311C16.8948 15.0144 16.9584 15.0095 17.0211 15.0167C17.0838 15.024 17.1445 15.0432 17.1996 15.0732C17.2547 15.1033 17.3032 15.1436 17.3424 15.1919C17.3815 15.2402 17.4104 15.2955 17.4276 15.3548C17.4447 15.414 17.4497 15.4759 17.4423 15.5369C17.4349 15.598 17.4152 15.6571 17.3843 15.7108L16.4653 17.3088L16.4348 17.3621C16.2726 17.6453 16.1398 17.8767 15.944 18.0512C15.7721 18.2043 15.5688 18.32 15.3474 18.3907C15.0958 18.4712 14.8231 18.4712 14.4878 18.4707H12.6188C12.4913 18.4706 12.3691 18.4212 12.279 18.3334C12.1889 18.2455 12.1383 18.1265 12.1383 18.0024ZM5.5012 18.0014C5.50127 18.0629 5.48888 18.1239 5.46474 18.1808C5.4406 18.2376 5.40518 18.2893 5.36052 18.3328C5.31585 18.3764 5.26281 18.4109 5.20442 18.4345C5.14604 18.4581 5.08346 18.4702 5.02026 18.4702H3.15124C2.81597 18.4702 2.54373 18.4702 2.29163 18.3897C2.0703 18.3192 1.86691 18.2036 1.69497 18.0507C1.49918 17.8767 1.36642 17.6448 1.20421 17.3616L1.17322 17.3088L0.254721 15.7103C0.223854 15.6566 0.204146 15.5975 0.196722 15.5364C0.189298 15.4754 0.194304 15.4134 0.211453 15.3542C0.228602 15.295 0.257559 15.2397 0.29667 15.1914C0.335782 15.1431 0.384282 15.1028 0.439402 15.0727C0.494521 15.0427 0.555181 15.0235 0.617917 15.0162C0.680653 15.009 0.744237 15.0139 0.805039 15.0306C0.86584 15.0473 0.922669 15.0755 0.972279 15.1136C1.02189 15.1516 1.06331 15.1989 1.09418 15.2525L2.01319 16.851C2.22189 17.2147 2.2782 17.3007 2.34432 17.3596C2.4151 17.423 2.4993 17.4707 2.59125 17.5004C2.67804 17.5281 2.78394 17.5336 3.21426 17.5336H5.01974C5.14716 17.5336 5.26936 17.5829 5.35945 17.6706C5.44955 17.7583 5.50017 17.8773 5.50017 18.0014H5.5012ZM5.5012 1.61136C5.50106 1.73547 5.45033 1.85445 5.36015 1.94217C5.26997 2.02988 5.14772 2.07915 5.02026 2.07915H3.21426C2.78394 2.07915 2.67804 2.08518 2.59125 2.11285C2.49966 2.14205 2.41549 2.18989 2.34432 2.25318C2.2782 2.31203 2.22189 2.39804 2.01319 2.76171L1.09366 4.36022C1.03132 4.46861 0.927317 4.54845 0.804522 4.58217C0.681728 4.61589 0.550204 4.60074 0.438885 4.54004C0.327566 4.47934 0.24557 4.37807 0.210936 4.25851C0.176302 4.13895 0.191866 4.01089 0.254205 3.9025L1.17322 2.30449L1.2037 2.25117C1.3659 1.96798 1.49867 1.73661 1.69446 1.56207C1.86665 1.40883 2.07041 1.29309 2.29215 1.22255C2.54424 1.14207 2.81649 1.14207 3.15175 1.14308H5.02077C5.14819 1.14308 5.27039 1.19236 5.36049 1.28009C5.45058 1.36781 5.5012 1.4868 5.5012 1.61086V1.61136Z" fill="#264EEE"/>
<path d="M16.418 2.21714L15.998 2.4455L16.0936 2.6212L16.5136 2.39284L16.418 2.21714ZM15.2218 17.4286L15.5468 17.7741L15.6925 17.6371L15.3675 17.2916L15.2218 17.4286ZM1.22107 17.3966L1.64105 17.1677L1.54535 16.9921L1.12537 17.221L1.22107 17.3966ZM2.49649 17.4685L2.34668 17.9131L2.53621 17.977L2.68602 17.5323L2.49649 17.4685ZM2.41723 2.18474L2.09281 1.83918L1.947 1.97607L2.27142 2.32163L2.41723 2.18474ZM12.1383 1.61136L12.3383 1.61158V1.61136H12.1383ZM12.6188 1.14358V0.943578V1.14358ZM14.4878 1.14358L14.4878 1.34358L14.4881 1.34358L14.4878 1.14358ZM15.3474 1.22305L15.2865 1.41354L15.2868 1.41366L15.3474 1.22305ZM15.944 1.56257L15.8109 1.71184L15.811 1.71186L15.944 1.56257ZM16.4348 2.25167L16.2613 2.35108L16.2619 2.35219L16.4348 2.25167ZM16.4658 2.30499L16.6392 2.20535L16.6387 2.20447L16.4658 2.30499ZM17.3843 3.9035L17.2109 4.00315L17.2115 4.00424L17.3843 3.9035ZM16.5448 4.36072L16.7189 4.2622L16.7183 4.26108L16.5448 4.36072ZM15.6263 2.76221L15.7998 2.66257L15.7997 2.66248L15.6263 2.76221ZM15.2947 2.25368L15.1615 2.40292L15.1623 2.4036L15.2947 2.25368ZM15.0478 2.11285L14.8582 2.04899L14.7934 2.24135L14.9867 2.3033L15.0478 2.11285ZM15.1976 1.6682L15.3871 1.73199L15.008 1.60434L15.1976 1.6682ZM15.0478 2.11335L14.987 2.3039L15.1745 2.36368L15.2373 2.17714L15.0478 2.11335ZM12.6188 2.08015L12.6186 2.28015H12.6188V2.08015ZM12.1383 18.0024L12.3383 18.0024L12.3383 18.002L12.1383 18.0024ZM12.6188 17.5336L12.6188 17.7336H12.6188V17.5336ZM15.0478 17.5004L14.9875 17.3097L14.986 17.3102L15.0478 17.5004ZM15.2947 17.3601L15.1623 17.2102L15.1614 17.211L15.2947 17.3601ZM15.6263 16.8521L15.7996 16.9519L15.7998 16.9517L15.6263 16.8521ZM16.5448 15.253L16.3715 15.1533L16.3714 15.1534L16.5448 15.253ZM16.834 15.0311L16.781 14.8382L16.781 14.8382L16.834 15.0311ZM17.3843 15.7108L17.2109 15.6111L17.2109 15.6111L17.3843 15.7108ZM16.4653 17.3088L16.2919 17.2091L16.2917 17.2095L16.4653 17.3088ZM16.4348 17.3621L16.6084 17.4615L16.6084 17.4613L16.4348 17.3621ZM15.944 18.0512L16.0771 18.2005L16.0771 18.2005L15.944 18.0512ZM15.3474 18.3907L15.2866 18.2002L15.2865 18.2002L15.3474 18.3907ZM14.4878 18.4707L14.4881 18.2707H14.4878V18.4707ZM12.6188 18.4707L12.6186 18.6707H12.6188V18.4707ZM5.5012 18.0014L5.7012 18.0012L5.70098 17.8014H5.5012V18.0014ZM5.02026 18.4702L5.02026 18.2702H5.02026V18.4702ZM2.29163 18.3897L2.35246 18.1992L2.35235 18.1991L2.29163 18.3897ZM1.69497 18.0507L1.82789 17.9012L1.82785 17.9012L1.69497 18.0507ZM1.20421 17.3616L1.37777 17.2622L1.3767 17.2604L1.20421 17.3616ZM1.17322 17.3088L0.999798 17.4084L1.00073 17.41L1.17322 17.3088ZM0.254721 15.7103L0.428133 15.6106L0.428092 15.6105L0.254721 15.7103ZM1.09418 15.2525L1.26757 15.1529L1.26755 15.1528L1.09418 15.2525ZM2.01319 16.851L2.18666 16.7515L2.18658 16.7514L2.01319 16.851ZM2.34432 17.3596L2.47775 17.2106L2.47729 17.2102L2.34432 17.3596ZM2.59125 17.5004L2.52983 17.6907L2.53051 17.691L2.59125 17.5004ZM5.50017 18.0014H5.30017V18.2014H5.50017V18.0014ZM5.5012 1.61136L5.7012 1.61158V1.61136H5.5012ZM5.02026 2.07915L5.02026 1.87915H5.02026V2.07915ZM2.59125 2.11285L2.53051 1.92229L2.5305 1.9223L2.59125 2.11285ZM2.34432 2.25318L2.21141 2.10374L2.21136 2.10378L2.34432 2.25318ZM2.01319 2.76171L2.18655 2.86143L2.18666 2.86126L2.01319 2.76171ZM1.09366 4.36022L0.920299 4.26049L0.920291 4.26051L1.09366 4.36022ZM0.254205 3.9025L0.427576 4.00221L0.427578 4.0022L0.254205 3.9025ZM1.17322 2.30449L1.34659 2.40419L1.34685 2.40374L1.17322 2.30449ZM1.2037 2.25117L1.03015 2.15176L1.03006 2.15191L1.2037 2.25117ZM1.69446 1.56207L1.5615 1.41266L1.56137 1.41278L1.69446 1.56207ZM2.29215 1.22255L2.35278 1.41314L2.35297 1.41308L2.29215 1.22255ZM3.15175 1.14308L3.15115 1.34308H3.15175V1.14308ZM5.02077 1.14308V0.943075V1.14308ZM12.3383 1.61136C12.3383 1.54209 12.3666 1.47454 12.4186 1.42388L12.1395 1.13729C12.0114 1.26209 11.9383 1.43251 11.9383 1.61136H12.3383ZM12.4186 1.42388C12.4708 1.37305 12.5427 1.34358 12.6188 1.34358V0.943578C12.44 0.943578 12.2675 1.01267 12.1395 1.13729L12.4186 1.42388ZM12.6188 1.34358H14.4878V0.943578H12.6188V1.34358ZM14.4881 1.34358C14.8315 1.34306 15.0705 1.34446 15.2865 1.41354L15.4083 1.03256C15.1211 0.940682 14.8146 0.943088 14.4875 0.943579L14.4881 1.34358ZM15.2868 1.41366C15.4817 1.4756 15.66 1.57724 15.8109 1.71184L16.0772 1.41331C15.884 1.24108 15.6563 1.11135 15.408 1.03244L15.2868 1.41366ZM15.811 1.71186C15.9779 1.8607 16.0952 2.06111 16.2613 2.35108L16.6084 2.15226C16.45 1.87586 16.3018 1.61352 16.0771 1.41328L15.811 1.71186ZM16.2619 2.35219L16.2929 2.40551L16.6387 2.20447L16.6077 2.15116L16.2619 2.35219ZM16.2924 2.40463L17.2109 4.00314L17.5577 3.80386L16.6392 2.20535L16.2924 2.40463ZM17.2115 4.00424C17.2294 4.03482 17.2407 4.06828 17.245 4.10268L17.6419 4.05268C17.6307 3.96451 17.6019 3.87957 17.5571 3.80277L17.2115 4.00424ZM17.245 4.10268C17.2493 4.13707 17.2466 4.17198 17.237 4.20548L17.6215 4.31572C17.646 4.23028 17.653 4.14086 17.6419 4.05268L17.245 4.10268ZM17.237 4.20548C17.2274 4.23899 17.211 4.27064 17.1885 4.29852L17.4996 4.54988C17.5555 4.48071 17.597 4.40115 17.6215 4.31572L17.237 4.20548ZM17.1885 4.29852C17.166 4.32642 17.1377 4.35003 17.1052 4.36774L17.2965 4.71902C17.3747 4.67645 17.4438 4.61905 17.4996 4.54988L17.1885 4.29852ZM17.1052 4.36774C17.0726 4.38546 17.0366 4.39687 16.9991 4.40111L17.0441 4.79858C17.1326 4.78856 17.2184 4.76158 17.2965 4.71902L17.1052 4.36774ZM16.9991 4.40111C16.9616 4.40536 16.9236 4.40233 16.8875 4.39226L16.7802 4.7776C16.8659 4.80148 16.9556 4.80859 17.0441 4.79858L16.9991 4.40111ZM16.8875 4.39226C16.8513 4.38219 16.8178 4.36534 16.7889 4.34291L16.5437 4.65894C16.614 4.71347 16.6944 4.75372 16.7802 4.7776L16.8875 4.39226ZM16.7889 4.34291C16.76 4.32049 16.7363 4.293 16.7189 4.2622L16.3708 4.45924C16.4146 4.5366 16.4734 4.6044 16.5437 4.65894L16.7889 4.34291ZM16.7183 4.26108L15.7998 2.66257L15.4529 2.86185L16.3714 4.46036L16.7183 4.26108ZM15.7997 2.66248C15.6956 2.48151 15.6266 2.36421 15.5746 2.28445C15.5214 2.20275 15.4794 2.14998 15.4271 2.10377L15.1623 2.4036C15.1766 2.41624 15.1959 2.4359 15.2395 2.50284C15.2844 2.57171 15.3479 2.67924 15.453 2.86194L15.7997 2.66248ZM15.4279 2.10445C15.3356 2.02217 15.2268 1.96022 15.1088 1.92239L14.9867 2.3033C15.052 2.32421 15.1115 2.35827 15.1615 2.40292L15.4279 2.10445ZM15.2373 2.1767L15.3871 1.73206L15.008 1.60434L14.8582 2.04899L15.2373 2.1767ZM15.008 1.60441L14.8582 2.04956L15.2373 2.17714L15.3871 1.73199L15.008 1.60441ZM15.1085 1.9228C14.9846 1.88329 14.8396 1.88015 14.4253 1.88015V2.28015C14.8706 2.28015 14.9374 2.28808 14.987 2.3039L15.1085 1.9228ZM14.4253 1.88015H12.6188V2.28015H14.4253V1.88015ZM12.619 1.88015C12.5814 1.88011 12.5442 1.87285 12.5098 1.85891L12.3598 2.22972C12.4419 2.26296 12.5299 2.28006 12.6186 2.28015L12.619 1.88015ZM12.5098 1.85891C12.4753 1.84497 12.4443 1.82469 12.4185 1.79949L12.1392 2.08578C12.2026 2.14764 12.2776 2.19647 12.3598 2.22972L12.5098 1.85891ZM12.4185 1.79949C12.3927 1.7743 12.3725 1.7447 12.3589 1.71252L11.9906 1.8687C12.0252 1.95019 12.0758 2.02391 12.1392 2.08578L12.4185 1.79949ZM12.3589 1.71252C12.3452 1.68035 12.3383 1.64607 12.3383 1.61158L11.9383 1.61114C11.9382 1.69965 11.9561 1.78719 11.9906 1.8687L12.3589 1.71252ZM12.3383 18.002C12.3383 17.9675 12.3452 17.9332 12.3588 17.9011L11.9904 17.7451C11.9559 17.8267 11.9381 17.9143 11.9383 18.0028L12.3383 18.002ZM12.3588 17.9011C12.3724 17.8689 12.3926 17.8393 12.4184 17.8141L12.139 17.5278C12.0756 17.5897 12.025 17.6635 11.9904 17.7451L12.3588 17.9011ZM12.4184 17.8141C12.4442 17.7889 12.4751 17.7687 12.5096 17.7548L12.3598 17.3839C12.2775 17.4171 12.2024 17.4659 12.139 17.5278L12.4184 17.8141ZM12.5096 17.7548C12.544 17.7408 12.5812 17.7336 12.6188 17.7336L12.6188 17.3336C12.53 17.3336 12.442 17.3506 12.3598 17.3839L12.5096 17.7548ZM12.6188 17.7336H14.4253V17.3336H12.6188V17.7336ZM14.4253 17.7336C14.6391 17.7336 14.7784 17.7324 14.8756 17.7273C14.9749 17.7221 15.0426 17.7124 15.1095 17.6906L14.986 17.3102C14.9662 17.3166 14.9375 17.3235 14.8547 17.3279C14.7698 17.3323 14.6412 17.3336 14.4253 17.3336V17.7336ZM15.108 17.6911C15.2265 17.6537 15.3357 17.5917 15.428 17.5092L15.1614 17.211C15.1117 17.2554 15.0525 17.2892 14.9875 17.3097L15.108 17.6911ZM15.4271 17.51C15.4794 17.4638 15.5214 17.411 15.5746 17.3294C15.6265 17.2498 15.6955 17.1326 15.7996 16.9519L15.453 16.7522C15.3479 16.9347 15.2844 17.0421 15.2395 17.1109C15.1959 17.1778 15.1766 17.1975 15.1623 17.2102L15.4271 17.51ZM15.7998 16.9517L16.7183 15.3527L16.3714 15.1534L15.4529 16.7524L15.7998 16.9517ZM16.7182 15.3528C16.7537 15.291 16.8139 15.244 16.8869 15.224L16.781 14.8382C16.6084 14.8856 16.4606 14.9983 16.3715 15.1533L16.7182 15.3528ZM16.8869 15.224C16.923 15.214 16.9609 15.2111 16.9982 15.2154L17.044 14.8181C16.9559 14.8079 16.8665 14.8147 16.781 14.8382L16.8869 15.224ZM16.9982 15.2154C17.0356 15.2197 17.0715 15.2311 17.1039 15.2488L17.2954 14.8976C17.2175 14.8552 17.1321 14.8282 17.044 14.8181L16.9982 15.2154ZM17.1039 15.2488C17.1363 15.2665 17.1644 15.29 17.1869 15.3178L17.4978 15.0661C17.4421 14.9972 17.3732 14.9401 17.2954 14.8976L17.1039 15.2488ZM17.1869 15.3178C17.2094 15.3455 17.2258 15.377 17.2355 15.4104L17.6197 15.2991C17.595 15.2141 17.5535 15.1349 17.4978 15.0661L17.1869 15.3178ZM17.2355 15.4104C17.2451 15.4438 17.2479 15.4785 17.2438 15.5128L17.6408 15.5611C17.6515 15.4732 17.6443 15.3841 17.6197 15.2991L17.2355 15.4104ZM17.2438 15.5128C17.2396 15.5471 17.2285 15.5805 17.2109 15.6111L17.5577 15.8105C17.6018 15.7337 17.6302 15.649 17.6408 15.5611L17.2438 15.5128ZM17.2109 15.6111L16.2919 17.2091L16.6387 17.4085L17.5577 15.8105L17.2109 15.6111ZM16.2917 17.2095L16.2612 17.2628L16.6084 17.4613L16.6389 17.408L16.2917 17.2095ZM16.2613 17.2627C16.0952 17.5527 15.9779 17.7531 15.811 17.9019L16.0771 18.2005C16.3018 18.0002 16.45 17.7379 16.6084 17.4615L16.2613 17.2627ZM15.811 17.9018C15.6602 18.0361 15.4815 18.1379 15.2866 18.2002L15.4082 18.5812C15.656 18.5021 15.884 18.3725 16.0771 18.2005L15.811 17.9018ZM15.2865 18.2002C15.0704 18.2693 14.8311 18.2712 14.4881 18.2707L14.4875 18.6707C14.815 18.6712 15.1212 18.673 15.4083 18.5812L15.2865 18.2002ZM14.4878 18.2707H12.6188V18.6707H14.4878V18.2707ZM12.619 18.2707C12.5428 18.2706 12.4709 18.241 12.4186 18.1901L12.1394 18.4766C12.2674 18.6013 12.4398 18.6705 12.6186 18.6707L12.619 18.2707ZM12.4186 18.1901C12.3666 18.1394 12.3383 18.0718 12.3383 18.0024L11.9383 18.0024C11.9383 18.1813 12.0113 18.3517 12.1394 18.4766L12.4186 18.1901ZM5.3012 18.0016C5.30124 18.0361 5.2943 18.0704 5.28064 18.1026L5.64884 18.2589C5.68346 18.1773 5.7013 18.0897 5.7012 18.0012L5.3012 18.0016ZM5.28064 18.1026C5.26697 18.1348 5.24676 18.1644 5.22092 18.1896L5.50012 18.4761C5.5636 18.4142 5.61423 18.3404 5.64884 18.2589L5.28064 18.1026ZM5.22092 18.1896C5.19506 18.2148 5.16406 18.2351 5.12957 18.249L5.27928 18.62C5.36155 18.5867 5.43664 18.5379 5.50012 18.4761L5.22092 18.1896ZM5.12957 18.249C5.09506 18.263 5.0579 18.2702 5.02026 18.2702L5.02026 18.6702C5.10901 18.6702 5.19702 18.6532 5.27928 18.62L5.12957 18.249ZM5.02026 18.2702H3.15124V18.6702H5.02026V18.2702ZM3.15124 18.2702C2.80806 18.2702 2.56919 18.2684 2.35246 18.1992L2.23081 18.5802C2.51826 18.672 2.82388 18.6702 3.15124 18.6702V18.2702ZM2.35235 18.1991C2.15744 18.137 1.9787 18.0354 1.82789 17.9012L1.56205 18.2001C1.75512 18.3719 1.98316 18.5013 2.23091 18.5803L2.35235 18.1991ZM1.82785 17.9012C1.66111 17.753 1.54399 17.5524 1.37776 17.2622L1.03067 17.461C1.18885 17.7372 1.33726 18.0003 1.5621 18.2002L1.82785 17.9012ZM1.3767 17.2604L1.34571 17.2075L1.00073 17.41L1.03172 17.4628L1.3767 17.2604ZM1.34663 17.2091L0.428133 15.6106L0.0813094 15.8099L0.999805 17.4084L1.34663 17.2091ZM0.428092 15.6105C0.410514 15.58 0.399429 15.5466 0.395261 15.5123L-0.00181704 15.5606C0.00886338 15.6485 0.0371944 15.7332 0.0813501 15.81L0.428092 15.6105ZM0.395261 15.5123C0.391094 15.478 0.393892 15.4433 0.403555 15.4099L0.0193502 15.2986C-0.0052851 15.3836 -0.0124982 15.4727 -0.00181704 15.5606L0.395261 15.5123ZM0.403555 15.4099C0.413221 15.3765 0.429631 15.345 0.452108 15.3173L0.141233 15.0656C0.0854868 15.1344 0.0439825 15.2136 0.0193502 15.2986L0.403555 15.4099ZM0.452108 15.3173C0.474594 15.2895 0.502745 15.266 0.535146 15.2483L0.343657 14.8971C0.26582 14.9396 0.196971 14.9967 0.141233 15.0656L0.452108 15.3173ZM0.535146 15.2483C0.567557 15.2306 0.603463 15.2192 0.64081 15.2149L0.595024 14.8176C0.506898 14.8277 0.421485 14.8547 0.343657 14.8971L0.535146 15.2483ZM0.64081 15.2149C0.678161 15.2106 0.715992 15.2135 0.752074 15.2234L0.858003 14.8377C0.772482 14.8142 0.683145 14.8074 0.595024 14.8176L0.64081 15.2149ZM0.752074 15.2234C0.78815 15.2334 0.821571 15.25 0.850498 15.2722L1.09406 14.9549C1.02377 14.901 0.94353 14.8612 0.858003 14.8377L0.752074 15.2234ZM0.850498 15.2722C0.879413 15.2944 0.90322 15.3217 0.920808 15.3522L1.26755 15.1528C1.2234 15.0761 1.16437 15.0089 1.09406 14.9549L0.850498 15.2722ZM0.920791 15.3522L1.8398 16.9507L2.18658 16.7514L1.26757 15.1529L0.920791 15.3522ZM1.83973 16.9506C2.04057 17.3006 2.11484 17.4231 2.21136 17.509L2.47729 17.2102C2.44156 17.1784 2.40322 17.1289 2.18666 16.7515L1.83973 16.9506ZM2.2109 17.5086C2.30322 17.5912 2.41216 17.6528 2.52983 17.6907L2.65268 17.3101C2.58645 17.2887 2.52698 17.2547 2.47775 17.2106L2.2109 17.5086ZM2.53051 17.691C2.65446 17.7305 2.79947 17.7336 3.21426 17.7336V17.3336C2.76841 17.3336 2.70162 17.3257 2.652 17.3099L2.53051 17.691ZM3.21426 17.7336H5.01974V17.3336H3.21426V17.7336ZM5.01974 17.7336C5.09581 17.7336 5.16772 17.7631 5.21993 17.8139L5.49898 17.5273C5.37099 17.4027 5.1985 17.3336 5.01974 17.3336V17.7336ZM5.21993 17.8139C5.27195 17.8646 5.30017 17.9321 5.30017 18.0014H5.70017C5.70017 17.8225 5.62715 17.6521 5.49898 17.5273L5.21993 17.8139ZM5.50017 18.2014H5.5012V17.8014H5.50017V18.2014ZM5.3012 1.61114C5.30112 1.6805 5.27282 1.74811 5.22071 1.7988L5.4996 2.08554C5.62784 1.9608 5.701 1.79044 5.7012 1.61158L5.3012 1.61114ZM5.22071 1.7988C5.16841 1.84966 5.09641 1.87915 5.02026 1.87915L5.02026 2.27915C5.19903 2.27915 5.37153 2.21009 5.4996 2.08554L5.22071 1.7988ZM5.02026 1.87915H3.21426V2.27915H5.02026V1.87915ZM3.21426 1.87915C2.79886 1.87915 2.65433 1.88282 2.53051 1.92229L2.652 2.3034C2.70175 2.28754 2.76902 2.27915 3.21426 2.27915V1.87915ZM2.5305 1.9223C2.4125 1.95992 2.30369 2.02167 2.21141 2.10374L2.47724 2.40262C2.52729 2.35811 2.58682 2.32418 2.65201 2.30339L2.5305 1.9223ZM2.21136 2.10378C2.11484 2.18969 2.04057 2.31219 1.83973 2.66216L2.18666 2.86126C2.40322 2.4839 2.44156 2.43438 2.47729 2.40258L2.21136 2.10378ZM1.83983 2.66198L0.920299 4.26049L1.26703 4.45995L2.18655 2.86143L1.83983 2.66198ZM0.920291 4.26051C0.884778 4.32226 0.824556 4.36926 0.751557 4.38931L0.857487 4.77503C1.03008 4.72763 1.17787 4.61496 1.26703 4.45993L0.920291 4.26051ZM0.751557 4.38931C0.678456 4.40939 0.600263 4.40023 0.534629 4.36445L0.343141 4.71563C0.500145 4.80124 0.684999 4.8224 0.857487 4.77503L0.751557 4.38931ZM0.534629 4.36445C0.469161 4.32875 0.422526 4.27013 0.403039 4.20286L0.0188336 4.31416C0.0686153 4.48601 0.185971 4.62993 0.343141 4.71563L0.534629 4.36445ZM0.403039 4.20286C0.383597 4.13575 0.392184 4.06374 0.427576 4.00221L0.0808335 3.80278C-0.00845227 3.95803 -0.0309931 4.14215 0.0188336 4.31416L0.403039 4.20286ZM0.427578 4.0022L1.34659 2.40419L0.999843 2.20478L0.0808306 3.80279L0.427578 4.0022ZM1.34685 2.40374L1.37733 2.35043L1.03006 2.15191L0.999584 2.20523L1.34685 2.40374ZM1.37724 2.35058C1.54334 2.06061 1.66059 1.8602 1.82754 1.71136L1.56137 1.41278C1.33675 1.61302 1.18847 1.87536 1.03015 2.15176L1.37724 2.35058ZM1.82741 1.71148C1.97845 1.57707 2.1575 1.47526 2.35278 1.41314L2.23152 1.03196C1.98331 1.11092 1.75485 1.2406 1.5615 1.41266L1.82741 1.71148ZM2.35297 1.41308C2.56953 1.34394 2.80848 1.34205 3.15115 1.34307L3.15235 0.943076C2.82449 0.942093 2.51896 0.940198 2.23132 1.03202L2.35297 1.41308ZM3.15175 1.34308H5.02077V0.943075H3.15175V1.34308ZM5.02077 1.34308C5.09684 1.34308 5.16876 1.37255 5.22096 1.42338L5.50001 1.13679C5.37202 1.01217 5.19954 0.943075 5.02077 0.943075V1.34308ZM5.22096 1.42338C5.27299 1.47404 5.3012 1.54159 5.3012 1.61086H5.7012C5.7012 1.432 5.62818 1.26159 5.50001 1.13679L5.22096 1.42338ZM5.3012 1.61086V1.61136H5.7012V1.61086H5.3012Z" fill="#264EEE" mask="url(#path-1-outside-1_31_1118)"/>
<path d="M3.25879 9.98907L3.17942 9.92825L3.1328 9.98908L3.17942 10.0499L3.25879 9.98907ZM3.25879 9.98907C3.17942 10.0499 3.17945 10.0499 3.17948 10.05L3.17961 10.0501L3.18002 10.0507L3.18155 10.0527L3.18736 10.0601L3.2098 10.0885C3.22951 10.1132 3.25867 10.1492 3.29679 10.1949C3.37302 10.2863 3.48514 10.4166 3.62938 10.5727C3.91773 10.8847 4.33502 11.3009 4.85095 11.7172C5.88013 12.5478 7.31497 13.3897 8.90924 13.3897C10.5033 13.3897 11.9381 12.5476 12.9673 11.717C13.4833 11.3005 13.9006 10.8843 14.189 10.5722C14.3333 10.4161 14.4454 10.2859 14.5217 10.1945C14.5598 10.1487 14.589 10.1127 14.6087 10.088L14.6311 10.0596L14.6369 10.0522L14.6385 10.0502L14.6389 10.0496L14.639 10.0495C14.639 10.0494 14.6391 10.0494 14.5597 9.98857M3.25879 9.98907C3.17942 9.92825 3.17944 9.92821 3.17948 9.92816L3.1796 9.928L3.18002 9.92746L3.18155 9.92548L3.18735 9.91802L3.20979 9.88963C3.22951 9.86492 3.25866 9.8289 3.29678 9.78318C3.37301 9.69176 3.48514 9.56153 3.62937 9.40541C3.91772 9.0933 4.33501 8.67709 4.85094 8.26068C5.88013 7.43002 7.31496 6.58793 8.90924 6.58793C10.5033 6.58793 11.9381 7.42989 12.9673 8.26042C13.4833 8.67677 13.9006 9.09291 14.189 9.40497C14.3333 9.56107 14.4454 9.69128 14.5217 9.78269C14.5598 9.8284 14.589 9.86441 14.6087 9.88912L14.6311 9.91751L14.6369 9.92496L14.6385 9.92694L14.6389 9.92748L14.639 9.92764C14.639 9.92769 14.6391 9.92773 14.5597 9.98857M14.5597 9.98857L14.6391 10.0494L14.6857 9.98856L14.6391 9.92773L14.5597 9.98857ZM5.59052 10.8403C6.54471 11.6101 7.71785 12.2531 8.90924 12.2531C10.1006 12.2531 11.2737 11.6106 12.2279 10.8404L5.59052 10.8403ZM5.59052 10.8403C5.26308 10.5751 4.95248 10.2908 4.66039 9.98905C4.95249 9.68712 5.26313 9.40266 5.59062 9.13723C6.54421 8.36709 7.71784 7.7245 8.90924 7.7245C10.1006 7.7245 11.2738 8.3671 12.2279 9.13728C12.5554 9.40256 12.866 9.68685 13.1581 9.98859C12.866 10.2905 12.5554 10.5749 12.228 10.8403L5.59052 10.8403Z" fill="#264EEE" stroke="#264EEE" stroke-width="0.2"/>
<path d="M9.18612 10.2529C9.11298 10.3241 9.01323 10.3645 8.90868 10.3645C8.80413 10.3645 8.70438 10.3241 8.63124 10.2529C8.55819 10.1817 8.51766 10.0859 8.51766 9.98645C8.51766 9.88705 8.55819 9.79116 8.63124 9.72004C8.70438 9.64882 8.80413 9.60836 8.90868 9.60836C9.01323 9.60836 9.11298 9.64882 9.18612 9.72004C9.25917 9.79116 9.2997 9.88705 9.2997 9.98645C9.2997 10.0859 9.25917 10.1817 9.18612 10.2529ZM8.90684 11.5011C9.11286 11.5049 9.31765 11.4686 9.50925 11.3944C9.70086 11.3202 9.87552 11.2095 10.023 11.0686C10.1704 10.9277 10.2877 10.7595 10.3678 10.5737C10.4479 10.3878 10.4892 10.1882 10.4892 9.98645C10.4892 9.78473 10.4479 9.58509 10.3678 9.39924C10.2877 9.2134 10.1704 9.04516 10.023 8.90426C9.87552 8.76338 9.70086 8.65266 9.50925 8.57846C9.31765 8.50426 9.11286 8.46802 8.90684 8.4718C8.50089 8.47926 8.11363 8.64149 7.82846 8.92444C7.5432 9.20748 7.38291 9.58876 7.38291 9.98645C7.38291 10.3841 7.5432 10.7654 7.82846 11.0485C8.11363 11.3314 8.50089 11.4937 8.90684 11.5011Z" fill="#264EEE" stroke="#264EEE" stroke-width="0.2"/>
<path d="M9.18612 10.2529C9.11298 10.3241 9.01323 10.3645 8.90868 10.3645C8.80413 10.3645 8.70438 10.3241 8.63124 10.2529C8.55819 10.1817 8.51766 10.0859 8.51766 9.98645C8.51766 9.88705 8.55819 9.79116 8.63124 9.72004C8.70438 9.64882 8.80413 9.60836 8.90868 9.60836C9.01323 9.60836 9.11298 9.64882 9.18612 9.72004C9.25917 9.79116 9.2997 9.88705 9.2997 9.98645C9.2997 10.0859 9.25917 10.1817 9.18612 10.2529ZM8.90684 11.5011C9.11286 11.5049 9.31765 11.4686 9.50925 11.3944C9.70086 11.3202 9.87552 11.2095 10.023 11.0686C10.1704 10.9277 10.2877 10.7595 10.3678 10.5737C10.4479 10.3878 10.4892 10.1882 10.4892 9.98645C10.4892 9.78473 10.4479 9.58509 10.3678 9.39924C10.2877 9.2134 10.1704 9.04516 10.023 8.90426C9.87552 8.76338 9.70086 8.65266 9.50925 8.57846C9.31765 8.50426 9.11286 8.46802 8.90684 8.4718C8.50089 8.47926 8.11363 8.64149 7.82846 8.92444C7.5432 9.20748 7.38291 9.58876 7.38291 9.98645C7.38291 10.3841 7.5432 10.7654 7.82846 11.0485C8.11363 11.3314 8.50089 11.4937 8.90684 11.5011Z" fill="#264EEE" stroke="#264EEE" stroke-width="0.2"/>
<path d="M9.18612 10.2529C9.11298 10.3241 9.01323 10.3645 8.90868 10.3645C8.80413 10.3645 8.70438 10.3241 8.63124 10.2529C8.55819 10.1817 8.51766 10.0859 8.51766 9.98645C8.51766 9.88705 8.55819 9.79116 8.63124 9.72004C8.70438 9.64882 8.80413 9.60836 8.90868 9.60836C9.01323 9.60836 9.11298 9.64882 9.18612 9.72004C9.25917 9.79116 9.2997 9.88705 9.2997 9.98645C9.2997 10.0859 9.25917 10.1817 9.18612 10.2529ZM8.90684 11.5011C9.11286 11.5049 9.31765 11.4686 9.50925 11.3944C9.70086 11.3202 9.87552 11.2095 10.023 11.0686C10.1704 10.9277 10.2877 10.7595 10.3678 10.5737C10.4479 10.3878 10.4892 10.1882 10.4892 9.98645C10.4892 9.78473 10.4479 9.58509 10.3678 9.39924C10.2877 9.2134 10.1704 9.04516 10.023 8.90426C9.87552 8.76338 9.70086 8.65266 9.50925 8.57846C9.31765 8.50426 9.11286 8.46802 8.90684 8.4718C8.50089 8.47926 8.11363 8.64149 7.82846 8.92444C7.5432 9.20748 7.38291 9.58876 7.38291 9.98645C7.38291 10.3841 7.5432 10.7654 7.82846 11.0485C8.11363 11.3314 8.50089 11.4937 8.90684 11.5011Z" fill="#264EEE" stroke="#264EEE" stroke-width="0.2"/>
</svg>
