<svg width="107" height="21" viewBox="0 0 107 21" fill="none" xmlns="http://www.w3.org/2000/svg">
<g clip-path="url(#clip0_527_12719)">
<mask id="mask0_527_12719" style="mask-type:luminance" maskUnits="userSpaceOnUse" x="0" y="0" width="107" height="21">
<path d="M107 0.00976562H0V20.9709H107V0.00976562Z" fill="white"/>
</mask>
<g mask="url(#mask0_527_12719)">
<path d="M106.636 18.3653C106.636 19.3258 105.843 20.1036 104.864 20.1036C103.885 20.1036 103.093 19.3258 103.093 18.3653C103.093 17.4047 103.885 16.627 104.864 16.627C105.843 16.627 106.636 17.4086 106.636 18.3653Z" fill="#1E1E1E"/>
<path d="M80.7496 20.9709C77.4564 20.9709 74.7734 18.342 74.7734 15.1104V5.99091C74.7734 2.75924 77.4524 0.126465 80.7496 0.126465C84.0428 0.126465 86.7218 2.75535 86.7218 5.99091V7.94314H83.1828V5.99091C83.1828 4.67258 82.0891 3.60313 80.7496 3.60313C79.4061 3.60313 78.3163 4.67647 78.3163 5.99091V15.1104C78.3163 16.4287 79.4101 17.4981 80.7496 17.4981C82.093 17.4981 83.1828 16.4287 83.1828 15.1104V13.5898H80.9715V10.117H86.7257V15.1104C86.7218 18.342 84.0428 20.9709 80.7496 20.9709Z" fill="#1E1E1E"/>
<path d="M11.4928 0.562012H0.428223V4.03479H4.18908V20.5353H7.73197V4.03479H11.4928V0.562012Z" fill="#1E1E1E"/>
<path d="M95.3531 20.9709C92.0599 20.9709 89.377 18.342 89.377 15.1065V5.99091C89.377 2.75924 92.0559 0.126465 95.3531 0.126465C98.6463 0.126465 101.325 2.75535 101.325 5.99091V15.1104C101.325 18.342 98.6463 20.9709 95.3531 20.9709ZM95.3531 3.60313C94.0097 3.60313 92.9198 4.67647 92.9198 5.99091V15.1104C92.9198 16.4287 94.0136 17.4981 95.3531 17.4981C96.6965 17.4981 97.7864 16.4287 97.7864 15.1104V5.99091C97.7864 4.67258 96.6926 3.60313 95.3531 3.60313Z" fill="#1E1E1E"/>
<path d="M22.4979 2.79035C21.9866 1.19591 20.4966 0.126465 18.7965 0.126465C17.0924 0.126465 15.6063 1.19591 15.0911 2.79035L12.8203 9.84869V20.5393H16.3592V15.3281H21.2258V20.5393H24.7647V9.84869L22.4979 2.79035ZM16.3592 11.8515V10.3815L18.4675 3.83647C18.5111 3.69647 18.6459 3.59924 18.7965 3.59924C18.9471 3.59924 19.0778 3.69258 19.1254 3.83647L21.2337 10.3815V11.8515H16.3592Z" fill="#1E1E1E"/>
<path d="M53.092 4.03479V0.562012H42.9111V20.5392H53.092V17.0626H46.454V12.287H51.7644V8.81423H46.454V4.03479H53.092Z" fill="#1E1E1E"/>
<path d="M40.9097 20.5392L36.0235 10.5487L40.9097 0.562012H36.9825L32.9482 8.81423H31.4066V0.562012H27.8677V20.5392H31.4066V12.287H32.9482L36.9825 20.5392H40.9097Z" fill="#1E1E1E"/>
<path d="M69.2452 6.42258H65.7063V8.02091L65.7736 8.46813L63.055 4.97202V3.81702C63.055 3.09757 63.6495 2.51424 64.3826 2.51424C65.1158 2.51424 65.7102 3.09757 65.7102 3.81702V4.68424H67.9216V3.81702C67.9216 1.8998 66.3324 0.344238 64.3826 0.344238C62.4289 0.344238 60.8437 1.90368 60.8437 3.81702V5.70313L61.5372 6.59369L59.96 8.91535V10.7626C59.96 13.1581 61.9454 15.1065 64.3866 15.1065C65.4883 15.1065 66.5226 14.702 67.3152 14.0176L67.8225 14.6709H69.2571V12.5009H68.9202L68.3733 11.797V10.9026L68.0365 8.59258H69.2571V6.42258H69.2452ZM64.3747 12.9365C63.1541 12.9365 62.1634 11.9642 62.1634 10.7665V9.57647L62.948 8.42147L65.9559 12.287C65.5438 12.6954 64.981 12.9365 64.3747 12.9365Z" fill="#1E1E1E"/>
<path d="M68.3572 17.0625H59.9478V19.2325H68.3572V17.0625Z" fill="#1E1E1E"/>
</g>
</g>
<defs>
<clipPath id="clip0_527_12719">
<rect width="107" height="21" fill="white" transform="translate(0 0.00976562)"/>
</clipPath>
</defs>
</svg>
