<svg width="78" height="33" viewBox="0 0 78 33" fill="none" xmlns="http://www.w3.org/2000/svg">
<path fill-rule="evenodd" clip-rule="evenodd" d="M15.2622 2.23624L24.2034 7.50927C25.5072 8.27804 26.3105 9.699 26.3105 11.2368V21.7823C26.3105 23.3201 25.5072 24.7411 24.2034 25.5099L15.2622 30.7829C13.9584 31.5519 12.3521 31.5519 11.0483 30.7829L2.10709 25.5099C0.803288 24.7411 0 23.3201 0 21.7823V11.2368C0 9.699 0.803288 8.27804 2.10709 7.50927L11.0483 2.23624C12.3521 1.46748 13.9584 1.46748 15.2622 2.23624ZM17.1158 8.46574H10.6749C9.59906 8.46574 8.58596 8.97095 7.92155 9.83064L7.82454 9.96224L6.59549 11.7115C5.8327 12.7973 6.01066 14.2928 6.98384 15.1608L7.09114 15.2514L12.0638 19.2184L10.5425 19.2189L10.5661 19.2356L6.41998 19.2362V21.3767C6.41998 23.0108 7.67491 24.3439 9.25041 24.4187L9.39024 24.422H15.7427C16.2118 24.422 16.6694 24.3259 17.0914 24.146L17.2701 24.0638L17.286 24.0751L17.3151 24.0629L17.3441 24.0508L17.3266 24.0351C17.7371 23.8225 18.1069 23.5272 18.4119 23.1617L18.5384 23.0008L19.892 21.1765C20.7078 20.0763 20.5285 18.5207 19.508 17.6434L19.3995 17.5551L14.323 13.6519L14.3869 13.6513L14.4058 13.6689H16.3238L16.2985 13.6513L20.0861 13.6519V11.5114C20.0861 9.82919 18.7563 8.46574 17.1158 8.46574ZM12.0686 19.2189L17.3266 24.0351L17.2985 24.0496L17.2701 24.0638L10.5661 19.2356L12.0858 19.2362L12.0638 19.2184L12.0686 19.2189ZM58.2768 9.29093C58.8428 9.29093 59.2999 9.4476 59.6492 9.76066C59.9982 10.0743 60.2692 10.5049 60.4619 11.0534L64.6151 23.0571L61.7983 23.8598L60.9135 20.9813H55.7309C55.6948 21.0989 55.6313 21.2785 55.5415 21.5198C55.4511 21.7615 55.3516 22.0093 55.2434 22.2638C55.135 22.5185 55.0235 22.7505 54.9093 22.9591C54.7946 23.1679 54.6953 23.2919 54.6115 23.3311C54.5147 23.4486 54.3975 23.5464 54.259 23.6248C54.1208 23.703 53.9672 23.7424 53.799 23.7424C53.4133 23.7424 53.0794 23.6019 52.7968 23.3211C52.5142 23.0407 52.3722 22.6848 52.3722 22.2542C52.3722 22.1105 52.3874 21.9703 52.4174 21.8331C52.4477 21.6961 52.4866 21.5623 52.5347 21.4317L56.1641 11.0534C56.3448 10.5443 56.6095 10.1233 56.9589 9.79041C57.3079 9.45724 57.747 9.29093 58.2768 9.29093ZM75.4121 9.50545L77.6192 11.5582L72.7671 16.2443L77.5815 21.2597C77.8601 21.5696 78 21.9247 78 22.3248C78 22.751 77.8508 23.1059 77.5529 23.3897C77.2545 23.6739 76.9027 23.8159 76.4966 23.8159C76.0401 23.8159 75.6594 23.6483 75.3552 23.3124L69.9509 17.4062V23.661H66.9254V11.0741C66.9254 10.648 67.0744 10.2866 67.3725 9.98958C67.6706 9.6926 68.0291 9.54412 68.4478 9.54412C68.8663 9.54412 69.2214 9.69597 69.5135 9.99939C69.8048 10.3028 69.9509 10.6673 69.9509 11.0932V15.1018L75.4121 9.50545ZM36.0949 9.29093C36.3964 9.29093 36.7673 9.3258 37.2074 9.39444C37.6472 9.46362 38.0686 9.57966 38.4709 9.74282C38.8734 9.90597 39.2158 10.1225 39.4991 10.3925C39.7817 10.6624 39.9231 10.9917 39.9231 11.3807C39.9231 11.7195 39.8065 12.018 39.5744 12.2749C39.3414 12.5323 39.0491 12.6609 38.6974 12.6609C38.4709 12.6609 38.2415 12.6203 38.009 12.5386C37.7763 12.4572 37.5342 12.3692 37.2827 12.2749C37.0314 12.1806 36.7705 12.0933 36.5002 12.0112C36.2298 11.9298 35.9438 11.8889 35.6423 11.8889C35.4786 11.8889 35.3089 11.9143 35.1332 11.9641C34.9569 12.0145 34.7965 12.0933 34.6522 12.1998C34.5075 12.3062 34.388 12.4321 34.2937 12.5762C34.1998 12.7208 34.1525 12.8867 34.1525 13.0749C34.1525 13.301 34.212 13.4925 34.3316 13.6493C34.4511 13.8063 34.6017 13.9381 34.7842 14.0446C34.9662 14.1516 35.1613 14.2423 35.3689 14.3175C35.5763 14.3927 35.7679 14.4559 35.9438 14.5057C36.472 14.6691 37.0218 14.8511 37.5941 15.0518C38.1662 15.2529 38.6908 15.5068 39.1689 15.8142C39.6466 16.122 40.0392 16.5048 40.3476 16.9626C40.6553 17.4211 40.8095 17.9887 40.8095 18.6667C40.8095 19.1311 40.7307 19.5767 40.5738 20.0033C40.4164 20.4298 40.1995 20.8256 39.9231 21.1893C39.4077 21.8547 38.7822 22.3504 38.0467 22.6765C37.3113 23.0027 36.522 23.166 35.6797 23.166C35.3529 23.166 34.9635 23.1254 34.5106 23.0437C34.0582 22.9622 33.593 22.8588 33.1152 22.7328C32.6371 22.6078 32.1752 22.4697 31.7291 22.3189C31.2824 22.1682 30.9087 22.0178 30.6072 21.8672C30.6197 21.767 30.6543 21.6257 30.7109 21.4434C30.7673 21.2617 30.8241 21.0703 30.8805 20.8695C30.9371 20.6684 30.9937 20.4769 31.0503 20.295C31.1067 20.113 31.1474 19.9722 31.1728 19.8715C31.1978 19.8088 31.226 19.7208 31.2573 19.608C31.2891 19.4951 31.3171 19.4073 31.3425 19.3444C31.3425 19.2943 31.3548 19.2567 31.3804 19.2314V19.2126C31.4557 19.2501 31.5782 19.3006 31.748 19.363C31.9176 19.4261 32.0996 19.492 32.2947 19.561C32.4896 19.6298 32.6814 19.699 32.8702 19.768C33.0587 19.8372 33.2156 19.8903 33.3414 19.9281C33.7563 20.0785 34.1618 20.2136 34.5578 20.3326C34.954 20.452 35.3529 20.5116 35.7555 20.5116C35.9941 20.5116 36.2331 20.471 36.472 20.3893C36.7108 20.3075 36.9248 20.1915 37.1133 20.0409C37.3018 19.8903 37.4527 19.7086 37.5659 19.4951C37.6791 19.2818 37.7356 19.0497 37.7356 18.7982C37.7356 18.6354 37.6758 18.4847 37.5564 18.3463C37.4369 18.2085 37.2953 18.0863 37.1321 17.9792C36.9686 17.873 36.7954 17.7787 36.6134 17.697C36.4309 17.6153 36.2769 17.5496 36.1515 17.4996C35.6358 17.2985 35.086 17.1106 34.5012 16.9344C33.9168 16.7589 33.3725 16.5298 32.8702 16.2474C32.3671 15.9649 31.9521 15.601 31.6254 15.1553C31.2983 14.7101 31.1349 14.1171 31.1349 13.3764C31.1349 12.7238 31.2824 12.1433 31.5782 11.6348C31.8734 11.1265 32.2573 10.6967 32.7286 10.3453C33.2001 9.99396 33.731 9.73029 34.3223 9.5546C34.913 9.37891 35.5038 9.29093 36.0949 9.29093ZM51.0363 9.29093C51.4181 9.29093 51.7359 9.42467 51.9905 9.69132C52.2447 9.95796 52.3722 10.2759 52.3722 10.644C52.3722 11.0127 52.2387 11.321 51.9714 11.5686C51.7041 11.8162 51.3925 11.9403 51.0363 11.9403H48.8991V21.6604C48.8991 22.0795 48.7527 22.4355 48.4601 22.7277C48.1675 23.0196 47.8116 23.166 47.3916 23.166C46.9844 23.166 46.6313 23.0165 46.3325 22.7182C46.0335 22.4197 45.8843 22.0671 45.8843 21.6604V11.9403H42.8691L42.8501 9.29093H51.0363ZM58.3131 12.5612L56.5437 18.2986H60.0646L58.3131 12.5612ZM9.25649 8.81261L16.2985 13.6513H14.3869L9.18215 8.84511L9.25649 8.81261Z" fill="#1E1E1E"/>
</svg>
