<svg width="98" height="21" viewBox="0 0 98 21" fill="none" xmlns="http://www.w3.org/2000/svg">
<g clip-path="url(#clip0_527_12717)">
<path fill-rule="evenodd" clip-rule="evenodd" d="M69.0824 0.00976562L72.5247 1.97973V8.61492L71.1886 7.82903V9.31034L77.2572 12.8351V16.641C77.7472 16.7597 78.3851 16.8195 78.9788 16.8195C79.646 16.8195 80.1507 16.7451 80.6995 16.5965V14.8196L81.9909 15.5603V14.079L73.815 9.35476V1.5355L74.3638 1.21C75.6696 0.498419 77.2278 0.0695352 78.9935 0.0695352C80.9077 0.0695352 82.7773 0.572727 84.1567 1.40223V8.19977L87.5997 10.1988V11.8433L80.6995 7.85892V3.69769C80.2103 3.57896 79.5717 3.52 78.9788 3.52C78.3107 3.52 77.806 3.60884 77.2572 3.75665V7.40015L84.142 11.3393V15.3083L86.3086 16.5529V18.0334L84.142 16.8041V18.804C82.7324 19.7223 80.9821 20.2691 78.9641 20.2691C77.0351 20.2691 75.1805 19.7659 73.8003 18.9364V12.3311L72.5091 11.5913V18.9073C71.0996 19.8249 69.3495 20.3733 67.3315 20.3733C65.4025 20.3733 63.5479 19.8693 62.1677 19.0406V8.82088L60.8774 8.0665V14.7897L57.4351 12.7907V3.96423C56.9157 3.83096 56.3367 3.75665 55.7136 3.75665H53.9929V16.6111H55.7136C56.3367 16.6111 56.9157 16.5376 57.4351 16.4043V14.3019L60.8774 16.2864V18.6553C59.4825 19.5139 57.6875 20.047 55.7136 20.047H50.5506V19.4251L49.2595 18.6844V20.0769H40.5946L37.4047 18.3743V21.0098L33.9625 19.0107V11.9321L32.4043 16.6563H32.1078L30.5202 11.9321V21.0098L25.7876 18.4631V20.5655L22.5528 18.581V15.1459L19.1106 13.1606V20.5655L15.6683 18.581V12.6574L17.3449 13.6339V12.1389L10.9349 8.43642V3.7413C10.4155 3.60884 9.83732 3.53534 9.2142 3.53534C8.59027 3.53534 8.01207 3.60884 7.49267 3.7413V16.6264C8.01207 16.7597 8.59027 16.8332 9.2142 16.8332C9.83732 16.8332 10.4155 16.7597 10.9349 16.6264V13.8867L9.2142 12.8941V8.92507L14.3919 11.9321V18.892C12.997 19.7659 11.202 20.299 9.2289 20.299C7.25502 20.299 5.45999 19.7659 4.06512 18.892V15.6637L4.92589 16.1523V14.6565L4.06512 14.1678V5.9043L5.78665 6.91069V5.41565L2.3444 3.43115V1.9353L4.06512 2.94169V1.49027C5.45999 0.61715 7.25502 0.0840733 9.2289 0.0840733C11.202 0.0840733 12.997 0.61715 14.3919 1.49027V8.92507L15.683 9.68107V1.49027C17.0779 0.61715 18.8729 0.0840733 20.846 0.0840733C22.8199 0.0840733 24.6149 0.61715 26.0098 1.49027V4.675L27.078 5.28238V0.305381H29.9714L32.2409 8.45096L33.3835 4.39311L35.2683 5.48915V4.00784L32.2409 2.27615V0.779496L34.1103 1.84646L34.5407 0.305381H37.4194V3.57896L42.1528 6.30411V8.48165H45.5502V6.95592L50.5653 9.799V4.52719L49.2301 3.75665H42.1528V4.79373L38.7106 2.8383V0.305381H49.4228L49.4081 2.21638L51.6637 3.49011V2.15742L50.5359 1.5355V0.305381H55.7136C57.6875 0.305381 59.4972 0.824727 60.8921 1.69865V5.0748L59.6009 4.33496V5.81546L62.1824 7.32584V0.00976562L65.6549 2.00961V16.7597C66.1449 16.8776 66.7827 16.9374 67.3756 16.9374C68.0436 16.9374 68.5483 16.8631 69.0971 16.7153V14.9093L70.3874 15.6491V14.1533L66.8864 12.1534V10.6584L69.0824 11.9168V0.00976562ZM95.7746 0.291489V3.72741H92.3323V8.74803L94.1723 9.81337V11.31L92.3323 10.2285V15.9155L94.0686 16.9227V18.4177L92.3323 17.4105V20.0622H88.8754V15.5746L85.4331 13.5756V12.0798L90.1518 14.8049V13.3236L88.8754 12.5975V8.24403L86.6345 6.95576V5.47445L88.8754 6.74818L88.8901 3.72741H85.4331V0.291489H95.7746ZM45.5649 8.51073V11.9168H42.1675V16.641H45.8172L47.257 17.4107V16.0635L44.5114 14.4788V12.9829L47.2423 14.5684V16.0489L51.2178 18.241L51.8409 18.5956H51.8712V17.1151L50.58 16.3744V11.3094L45.5649 8.51073ZM37.4194 5.23796V16.8776L40.0009 18.3589V16.8776L38.7106 16.1378V5.97861L37.4194 5.23796ZM25.9943 6.28957V16.8041L26.0245 16.8195L27.0633 17.5448V6.91069L25.9943 6.28957ZM94.2017 12.9978L98 15.2197V16.7156L94.2017 14.4944V12.9978ZM0.69678 12.1541L3.13126 13.62V15.1151L0.69678 13.6499V12.1541ZM20.8313 3.53534C20.2082 3.53534 19.63 3.60884 19.1106 3.7413V9.19161L23.8579 11.9022V10.4209L22.5528 9.66573V3.7413C22.0334 3.60884 21.4544 3.53534 20.8313 3.53534ZM0 6.39239L2.6558 7.93347V9.42851L0 7.88905V6.39239ZM94.8697 5.91852L97.7182 7.5339V9.02975L94.8697 7.39983V5.91852Z" fill="#1E1E1E"/>
</g>
<defs>
<clipPath id="clip0_527_12717">
<rect width="98" height="21" fill="white" transform="translate(0 0.00976562)"/>
</clipPath>
</defs>
</svg>
