<svg width="108" height="34" viewBox="0 0 108 34" fill="none" xmlns="http://www.w3.org/2000/svg">
<path d="M65.9175 22.3914V5.26855H68.2061V22.3914H65.9175ZM75.5612 28.7813H73.1103L75.8177 22.212L70.2433 11.9109H72.8048L76.9363 19.5551L80.0901 11.9109H82.5321L75.5612 28.7813ZM90.5706 20.5203C92.2519 20.5203 93.5427 19.2506 93.5427 17.1914C93.5427 15.1557 92.6096 13.7851 90.6926 13.576C89.0868 13.4015 87.53 14.2931 86.9151 15.1223V19.3948C87.6702 20.0884 89.1333 20.5203 90.5706 20.5203ZM90.6341 11.6554C93.754 11.6554 95.6779 13.9559 95.6779 17.1512C95.6779 20.9089 93.0774 22.647 90.3474 22.647C89.0214 22.647 88.0852 22.3401 87.3049 21.7523L86.9667 21.4967H86.9151V28.7813H84.6265V11.9115H86.9151V13.1453L87.2785 12.7797C88.0072 12.0644 89.1773 11.6554 90.6341 11.6554ZM100.097 18.8893V19.3428C100.138 20.1955 100.961 20.7041 103.19 20.7041C105.14 20.7041 105.712 19.9628 105.712 19.2215C105.712 18.6597 105.296 18.3014 103.892 18.148L101.343 17.8924C98.6902 17.6369 97.8584 16.6655 97.8584 15.0808C97.8584 13.4702 99.419 11.6554 102.67 11.6554C106.18 11.6554 107.48 13.1633 107.48 14.8506L107.479 15.1569H105.208L105.175 14.7962C105.167 14.7145 105.155 14.6322 105.13 14.5536C104.941 13.9503 104.287 13.5983 102.67 13.5983C100.719 13.5983 100.147 14.4156 100.147 15.0808C100.147 15.5659 100.407 15.8982 101.499 16.0009L103.996 16.2565C107.271 16.5887 108 17.6623 108 19.1956C108 20.7301 106.778 22.647 103.19 22.647C99.5227 22.647 97.8584 21.3433 97.8584 19.2723V18.8893H100.097ZM61.0384 11.3571V13.5147H59.2666C54.5831 13.5977 51.0263 17.3325 51.0263 21.7745V22.6433H48.8389V15.5195C48.8389 10.1518 53.4966 5.26855 59.2666 5.26855H63.5094V7.42616H59.2666C55.0088 7.54806 51.4362 10.622 51.0263 15.1031V15.4224C53.1728 12.7283 55.9072 11.4722 59.2666 11.3571H61.0384Z" fill="#313236"/>
<path fill-rule="evenodd" clip-rule="evenodd" d="M2.30154 26.7233V33.3724H0V26.7233H2.30154ZM9.5259 16.6865V33.3724H7.22498V16.6865H9.5259ZM33.373 10.3576V19.7943C33.373 27.2345 27.116 33.373 19.7943 33.373H14.2697V31.032H19.7943C25.8258 31.032 31.0715 25.9434 31.0715 19.7943V18.9461C28.6719 22.5963 24.2661 25.0294 19.7943 25.0294H18.6429V22.6728H19.7943C25.8823 22.6728 31.0715 17.7164 31.0715 11.5083V10.3576H33.373ZM19.1039 0V2.30154H13.5794C7.59748 2.30154 2.31976 7.40641 2.30154 13.7103L2.30217 14.5566C4.74819 10.803 9.34311 8.34419 13.5794 8.34419H14.7308V10.7002H13.5794C7.09056 10.7002 2.30154 16.4165 2.30154 21.8647V23.0154H0V13.5787C0 6.46862 6.06479 0 13.5794 0H19.1039ZM26.2378 0.00062647V16.6865H23.9369V0.00062647H26.2378ZM33.373 0.00062647V6.64967H31.0715V0.00062647H33.373Z" fill="#264EEE"/>
</svg>
